<svg width="70" height="90" viewBox="0 0 70 90" fill="none" xmlns="http://www.w3.org/2000/svg">
<path d="M7.5 26.2385H22.1489L25.5015 22.4944C28.2523 19.0707 32.3211 17.8752 36.0117 19.4063L43.1089 22.4944M7.5 59.8125H22.4932L29.9138 64.5896C36.9912 69.1459 40.53 71.4244 44.3861 71.1469C44.568 71.1338 44.7491 71.1161 44.9302 71.0948C48.7672 70.6365 51.7747 67.7325 57.7897 61.9241L63.7249 56.1923" stroke="#E5E5E3" stroke-width="0.9" stroke-linejoin="round"/>
<path d="M82.4302 27.0959H71.2729C66.9679 24.4985 62.0426 17.7896 52.6699 18.7883C50.583 19.0106 46.5229 19.3358 42.2584 23.5669L35.5189 30.6155C34.1921 32.2015 32.3347 36.2729 35.5189 39.8707C38.7034 43.4685 42.9349 40.8049 44.6527 39.0232L48.894 35.569L69.1721 59.778C69.2434 59.8631 69.3487 59.9122 69.4594 59.9122H82.5146" stroke="#E5E5E3" stroke-width="0.9"/>
</svg>
