<svg width="56" height="57" viewBox="0 0 56 57" fill="none" xmlns="http://www.w3.org/2000/svg">
<path d="M8.24219 32.4512H14.1693" stroke="#707171" stroke-linejoin="round"/>
<path d="M47.7572 32.4512H41.8301" stroke="#707171" stroke-linejoin="round"/>
<path d="M22.0723 32.4512H33.9265" stroke="#707171" stroke-linejoin="round"/>
<path d="M8.24219 38.3789V44.306H17.1328V38.3789" stroke="#707171" stroke-linecap="round" stroke-linejoin="round"/>
<path d="M38.8652 38.3789V44.306H47.7559V38.3789" stroke="#707171" stroke-linecap="round" stroke-linejoin="round"/>
<path d="M13.1814 24.5491L8.24219 20.5977" stroke="#707171" stroke-linejoin="round"/>
<path d="M12.1953 24.5485L16.1467 12.6943H25.8551" stroke="#707171" stroke-linejoin="round"/>
<path d="M26.8325 24.5488H12.1936L8.24219 32.4508V38.3787H47.7562V32.4508V29.667" stroke="#707171" stroke-linejoin="round"/>
<path d="M45.9487 23.0675L51.3333 28.5003M49 15.667C49 9.86801 44.299 5.16699 38.5 5.16699C32.701 5.16699 28 9.86801 28 15.667C28 21.466 32.701 26.167 38.5 26.167C44.299 26.167 49 21.466 49 15.667Z" stroke="#707171" stroke-linejoin="round"/>
</svg>
