<svg width="70" height="90" viewBox="0 0 70 90" fill="none" xmlns="http://www.w3.org/2000/svg">
<path d="M75 45L82.5 56.25V82.5H71.25V71.25H18.75V82.5H7.5V56.25L15 45M75 45L67.5 46.875H22.5L15 45M75 45L82.5 39.375M15 45L24.375 22.5H37.5M15 45L7.5 39.375" stroke="#E5E5E3" stroke-width="0.9" stroke-linecap="square"/>
<path d="M67.5 60V60.0375" stroke="#E5E5E3" stroke-linecap="square"/>
<path d="M22.5 60V60.0375" stroke="#E5E5E3" stroke-linecap="square"/>
<path d="M63.75 37.5C72.0343 37.5 78.75 30.7843 78.75 22.5C78.75 14.2157 72.0343 7.5 63.75 7.5C55.4657 7.5 48.75 14.2157 48.75 22.5C48.75 30.7843 55.4657 37.5 63.75 37.5Z" stroke="#E5E5E3" stroke-width="0.9" stroke-linecap="square"/>
<path d="M63.75 16.875V22.5L67.5 24.375" stroke="#E5E5E3" stroke-width="0.9" stroke-linecap="square"/>
</svg>
