<svg width="24" height="24" viewBox="0 0 24 24" fill="none" xmlns="http://www.w3.org/2000/svg">
<g filter="url(#filter0_i_6168_43536)">
<circle cx="12" cy="12" r="12" fill="#F4F4F4"/>
</g>
<mask id="mask0_6168_43536" style="mask-type:alpha" maskUnits="userSpaceOnUse" x="0" y="0" width="24" height="24">
<circle cx="12" cy="12" r="12" fill="#FAFAFA"/>
</mask>
<g mask="url(#mask0_6168_43536)">
<path fill-rule="evenodd" clip-rule="evenodd" d="M12.0951 4.39386C9.38811 4.39386 7.19362 6.58835 7.19362 9.29539V14.1969H8.88321C8.6312 13.6779 8.40585 12.7849 8.42467 12.1564C8.67754 13.1053 8.84797 13.5905 9.29093 14.1969H9.29415C9.39297 14.3287 9.50152 14.454 9.61934 14.5718C10.2759 15.2284 11.1664 15.5973 12.095 15.5973C13.0235 15.5973 13.914 15.2284 14.5706 14.5718C14.8341 14.3084 15.0512 14.0073 15.2168 13.6811L15.5743 13.1137C15.492 13.3842 15.3374 13.8492 15.1887 14.1969H16.9967V9.29539C16.9967 6.58835 14.8022 4.39386 12.0951 4.39386ZM15.5961 16.9977C17.9208 16.9977 19.7974 18.8743 19.7974 21.199V23.9999H4.39258V21.199C4.39258 18.8743 6.26916 16.9977 8.59389 16.9977H15.5961Z" fill="#707171"/>
</g>
<defs>
<filter id="filter0_i_6168_43536" x="0" y="0" width="24" height="25" filterUnits="userSpaceOnUse" color-interpolation-filters="sRGB">
<feFlood flood-opacity="0" result="BackgroundImageFix"/>
<feBlend mode="normal" in="SourceGraphic" in2="BackgroundImageFix" result="shape"/>
<feColorMatrix in="SourceAlpha" type="matrix" values="0 0 0 0 0 0 0 0 0 0 0 0 0 0 0 0 0 0 127 0" result="hardAlpha"/>
<feOffset dy="1"/>
<feGaussianBlur stdDeviation="6.9"/>
<feComposite in2="hardAlpha" operator="arithmetic" k2="-1" k3="1"/>
<feColorMatrix type="matrix" values="0 0 0 0 0 0 0 0 0 0 0 0 0 0 0 0 0 0 0.03 0"/>
<feBlend mode="normal" in2="shape" result="effect1_innerShadow_6168_43536"/>
</filter>
</defs>
</svg>
