<svg width="62" height="71" viewBox="0 0 62 71" fill="none" xmlns="http://www.w3.org/2000/svg">
<path d="M82.4167 38.5761V35.3185H72.0593L74.0556 23.917H69.875L65.6944 53.2352L59.4236 28.8034H55.2431L48.9722 53.2352L44.7917 23.917H40.6111L42.6073 35.3185H32.25V38.5761H43.1759L44.0308 43.4624H32.25V46.72H44.6015L46.8819 59.7503H51.0625L57.3333 35.3185L63.6042 59.7503H67.7847L70.0652 46.72H82.4167V43.4624H70.6359L71.4908 38.5761H82.4167Z" fill="#707171" stroke="#707171" stroke-width="0.2"/>
<path d="M35.8333 -8.33301V16.7503H10.75" stroke="#707171" stroke-width="4"/>
<path d="M71.5509 16.7216V-8.28354C71.5509 -8.30332 71.5352 -8.31934 71.5151 -8.31934L35.6776 -8.3183L10.75 16.7089V63.2975C10.75 63.3172 10.7661 63.3333 10.7858 63.3333H46.5131" stroke="#707171" stroke-width="4"/>
</svg>
