<svg width="353" height="576" viewBox="0 0 353 576" fill="none" xmlns="http://www.w3.org/2000/svg">
<path opacity="0.26" fill-rule="evenodd" clip-rule="evenodd" d="M16.126 -67.4869C2.5799 -34.3034 -3.28518 11.9145 4.81014 74.2913C15.2231 154.526 43.9714 211.081 102.459 253.982C157.416 294.293 236.582 320.714 341.11 349.865C378.82 360.381 400.692 374.598 413.201 388.155C425.308 401.276 430.548 415.799 431.484 431.376C433.505 465.017 415.133 504.087 394.592 530.607L451.419 574.621C476.997 541.596 506.743 485.474 503.233 427.064C501.403 396.615 490.466 365.898 466.027 339.412C441.99 313.361 406.948 293.604 360.419 280.628C254.349 251.048 187.802 227.44 144.972 196.024C105.674 167.198 84.5638 130.328 76.0907 65.0405C69.0772 10.9991 75.1539 -21.9015 82.6731 -40.3213C89.4405 -56.8992 96.5878 -60.5163 96.529 -60.6376C96.5199 -60.6563 96.3394 -60.5918 95.9597 -60.4789L75.4781 -129.377C51.2514 -122.176 29.38 -99.9553 16.126 -67.4869Z" stroke="white"/>
</svg>
