<svg width="394" height="453" viewBox="0 0 394 453" fill="none" xmlns="http://www.w3.org/2000/svg">
<path opacity="0.26" fill-rule="evenodd" clip-rule="evenodd" d="M392.48 -27.9561C395.313 7.7987 386.86 53.6474 360.182 110.661C325.867 183.997 281.263 229.184 212.447 252.317C147.786 274.053 64.2585 275.19 -44.2852 271.223C-83.4437 269.792 -108.623 276.701 -124.673 285.826C-140.206 294.658 -149.618 306.913 -155.244 321.48C-167.396 352.941 -161.748 395.775 -150.22 427.302L-217.79 452C-232.146 412.741 -243.457 350.193 -222.358 295.569C-211.359 267.093 -191.593 241.128 -160.237 223.301C-129.397 205.767 -89.9737 197.577 -41.6571 199.342C68.4872 203.368 139.126 201.079 189.519 184.139C235.757 168.596 267.094 139.857 295.016 80.1823C318.129 30.7874 322.333 -2.42821 320.76 -22.2753C319.344 -40.1379 313.628 -45.7583 313.721 -45.856C313.735 -45.8711 313.887 -45.7548 314.215 -45.5318L354.687 -105C375.602 -90.7721 389.707 -62.9405 392.48 -27.9561Z" stroke="white"/>
</svg>
