<svg width="67" height="22" viewBox="0 0 67 22" fill="none" xmlns="http://www.w3.org/2000/svg">
<rect width="67" height="22" fill="#E5E5E3"/>
<path d="M8.97559 13.0416H8.98084" stroke="#707171" stroke-linecap="square" stroke-linejoin="round"/>
<path d="M11.6062 9.25403V7.8097C11.6062 6.31301 10.4715 5.16614 9.05171 5.16614C7.63195 5.16614 6.38558 6.31301 6.38558 7.8097L6.31579 9.25403M4.31006 9.25403H13.6406V16.8338H4.31076L4.31006 9.25403Z" stroke="#707171"/>
<path d="M20.936 15V6.432H22.4V13.752H26.456V15H20.936ZM30.6059 15.168C29.9579 15.168 29.3819 15.028 28.8779 14.748C28.3819 14.468 27.9899 14.08 27.7019 13.584C27.4219 13.088 27.2819 12.52 27.2819 11.88C27.2819 11.232 27.4219 10.66 27.7019 10.164C27.9899 9.668 28.3819 9.28 28.8779 9C29.3819 8.72 29.9579 8.58 30.6059 8.58C31.2539 8.58 31.8259 8.72 32.3219 9C32.8259 9.28 33.2179 9.668 33.4979 10.164C33.7859 10.66 33.9299 11.232 33.9299 11.88C33.9299 12.52 33.7859 13.088 33.4979 13.584C33.2179 14.08 32.8259 14.468 32.3219 14.748C31.8259 15.028 31.2539 15.168 30.6059 15.168ZM30.6059 13.944C31.1579 13.944 31.6099 13.752 31.9619 13.368C32.3139 12.984 32.4899 12.488 32.4899 11.88C32.4899 11.472 32.4099 11.112 32.2499 10.8C32.0899 10.488 31.8659 10.244 31.5779 10.068C31.2979 9.892 30.9739 9.804 30.6059 9.804C30.2379 9.804 29.9099 9.892 29.6219 10.068C29.3419 10.244 29.1179 10.488 28.9499 10.8C28.7899 11.112 28.7099 11.472 28.7099 11.88C28.7099 12.288 28.7899 12.648 28.9499 12.96C29.1179 13.264 29.3419 13.504 29.6219 13.68C29.9099 13.856 30.2379 13.944 30.6059 13.944ZM38.3685 15.168C37.6965 15.168 37.1125 15.036 36.6165 14.772C36.1285 14.5 35.7485 14.12 35.4765 13.632C35.2125 13.144 35.0805 12.568 35.0805 11.904C35.0805 11.24 35.2165 10.66 35.4885 10.164C35.7685 9.66 36.1605 9.272 36.6645 9C37.1685 8.72 37.7605 8.58 38.4405 8.58C39.2085 8.58 39.8845 8.76 40.4685 9.12L40.5765 10.512C39.9525 10.056 39.2765 9.828 38.5485 9.828C37.9165 9.828 37.4165 10.012 37.0485 10.38C36.6885 10.74 36.5085 11.236 36.5085 11.868C36.5085 12.5 36.6885 13 37.0485 13.368C37.4165 13.736 37.9165 13.92 38.5485 13.92C39.2925 13.92 39.9645 13.68 40.5645 13.2L40.4565 14.616C39.8325 14.984 39.1365 15.168 38.3685 15.168ZM46.3161 15L44.0001 12.12L43.4481 12.732V15H42.0441V6.156L43.4481 6.024V11.244L45.7161 8.748H47.3841L44.9961 11.328L47.9841 15H46.3161ZM51.7919 15.168C51.0719 15.168 50.4439 15.036 49.9079 14.772C49.3799 14.5 48.9719 14.116 48.6839 13.62C48.3959 13.124 48.2519 12.54 48.2519 11.868C48.2519 11.22 48.3839 10.648 48.6479 10.152C48.9119 9.656 49.2759 9.272 49.7399 9C50.2039 8.72 50.7359 8.58 51.3359 8.58C51.9199 8.58 52.4239 8.712 52.8479 8.976C53.2799 9.232 53.6119 9.604 53.8439 10.092C54.0759 10.572 54.1919 11.144 54.1919 11.808V12.24H49.6799C49.7599 12.808 49.9879 13.244 50.3639 13.548C50.7399 13.844 51.2519 13.992 51.8999 13.992C52.6839 13.992 53.3959 13.768 54.0359 13.32L53.9399 14.616C53.3319 14.984 52.6159 15.168 51.7919 15.168ZM49.6799 11.244H52.7759C52.7359 10.74 52.5879 10.352 52.3319 10.08C52.0839 9.8 51.7479 9.66 51.3239 9.66C50.8839 9.66 50.5199 9.804 50.2319 10.092C49.9439 10.372 49.7599 10.756 49.6799 11.244ZM58.288 15.168C57.72 15.168 57.212 15.028 56.764 14.748C56.316 14.46 55.964 14.068 55.708 13.572C55.452 13.076 55.324 12.512 55.324 11.88C55.324 11.24 55.456 10.672 55.72 10.176C55.984 9.68 56.34 9.292 56.788 9.012C57.236 8.724 57.736 8.58 58.288 8.58C58.712 8.58 59.096 8.668 59.44 8.844C59.792 9.012 60.072 9.244 60.28 9.54V6.156L61.696 6.024V15H60.424V14.064C60.224 14.4 59.936 14.668 59.56 14.868C59.184 15.068 58.76 15.168 58.288 15.168ZM60.28 13.092V10.656C60.112 10.384 59.884 10.168 59.596 10.008C59.308 9.848 58.992 9.768 58.648 9.768C58.096 9.768 57.64 9.964 57.28 10.356C56.928 10.74 56.752 11.252 56.752 11.892C56.752 12.3 56.832 12.66 56.992 12.972C57.152 13.284 57.372 13.532 57.652 13.716C57.94 13.892 58.268 13.98 58.636 13.98C58.972 13.98 59.284 13.904 59.572 13.752C59.868 13.592 60.104 13.372 60.28 13.092Z" fill="#707171"/>
</svg>
