<svg width="96" height="40" viewBox="0 0 96 40" fill="none" xmlns="http://www.w3.org/2000/svg">
<path d="M31.2847 17.5729H32.2759L31.7605 16.2645L31.2847 17.5729ZM30.2539 18.8416L31.7209 15.3923H32.1173L33.5843 18.8416H32.831L32.5138 17.9693H31.2054L30.8486 18.8416H30.2539ZM33.7032 18.683L33.6636 18.0486C33.9808 18.3262 34.3376 18.4848 34.6944 18.4848C34.8927 18.4848 35.0512 18.4451 35.1702 18.3658C35.3684 18.2072 35.3684 17.9297 35.2098 17.7711C35.0909 17.6125 34.853 17.5332 34.3376 17.2953C33.8618 17.0575 33.6239 16.7403 33.6239 16.3042C33.6239 16.0266 33.7429 15.7887 33.9411 15.5905C34.3772 15.194 35.1305 15.3526 35.2098 15.3526C35.3684 15.3923 35.4874 15.4319 35.6063 15.4716L35.646 16.0663C35.4874 15.9473 35.3288 15.868 35.2098 15.8284C34.7341 15.6698 34.2187 15.7887 34.2187 16.1852C34.2187 16.3834 34.3376 16.5024 34.6151 16.661C35.2098 16.9782 35.527 17.0971 35.7253 17.3746C36.0028 17.6918 36.0028 18.3658 35.5667 18.683C35.3288 18.8416 35.0512 18.9605 34.6548 18.9605C34.2187 18.9209 33.8618 18.7623 33.7032 18.683ZM36.994 18.8416V15.7887C36.7164 15.7887 36.3993 15.8284 35.9631 15.868L36.0028 15.3526H38.6592L38.6988 15.868C38.1437 15.7887 37.8266 15.7887 37.668 15.7887V18.8019H36.994V18.8416ZM40.4433 18.4848C40.9984 18.4848 41.4741 18.0486 41.4741 17.0971C41.4741 17.0178 41.4741 16.2645 40.9984 15.868C40.8398 15.7491 40.6812 15.7094 40.4433 15.7094C39.7296 15.7094 39.4125 16.3835 39.4125 17.0971C39.4521 18.0486 39.9279 18.4848 40.4433 18.4848ZM40.4433 18.9209C39.4125 18.9209 38.6988 18.1676 38.6988 17.1368C38.6988 16.0663 39.4125 15.3526 40.4433 15.3526C41.4741 15.3526 42.1878 16.0663 42.1878 17.1368C42.1878 18.1676 41.4741 18.9209 40.4433 18.9209ZM42.7429 18.8416V15.3923H43.0997L45.1613 17.7315V15.3923H45.6371V18.8416H45.2803L43.2186 16.5024V18.8416H42.7429ZM47.5006 18.8416L47.897 15.3923H48.2539L49.4829 17.8108L50.6723 15.3923H51.0292L51.4256 18.8416H50.712L50.5138 16.7006L49.5622 18.683H49.245L48.2539 16.7006L48.0556 18.8019H47.5006V18.8416ZM52.6944 17.5729H53.6856L53.1701 16.2645L52.6944 17.5729ZM51.6635 18.8416L53.1305 15.3923H53.527L54.9939 18.8416H54.2406L53.9234 17.9693H52.6151L52.2582 18.8416H51.6635ZM55.9058 16.9385C55.9851 16.9385 56.104 16.9782 56.1833 16.9782C56.7384 16.9782 56.897 16.661 56.897 16.3834C56.897 15.9473 56.5798 15.7887 56.1833 15.7887C56.104 15.7887 56.0247 15.7887 55.9455 15.7887V16.9385H55.9058ZM55.2715 18.8416V15.4319C55.4697 15.3923 55.7076 15.3923 56.0644 15.3923C56.3816 15.3923 56.6591 15.4319 56.8573 15.5112C57.1745 15.6301 57.571 15.868 57.571 16.3834C57.571 16.5817 57.4917 16.7799 57.3728 16.9782C57.2538 17.1368 57.0556 17.2557 56.8177 17.335L58.0468 18.8812H57.2538L56.1833 17.4143H55.9455V18.8812H55.2715V18.8416ZM58.8397 18.8416V15.7887C58.5622 15.7887 58.245 15.8284 57.8089 15.868L57.8485 15.3526H60.5049L60.5446 15.868C59.9895 15.7887 59.6723 15.7887 59.5137 15.7887V18.8019H58.8397V18.8416ZM60.9807 15.3923H61.6547V18.8416H60.9807V15.3923ZM62.3287 18.8416V15.3923H62.6855L64.7472 17.7315V15.3923H65.223V18.8416H64.8661L62.8045 16.5024V18.8416H62.3287Z" fill="white"/>
<path d="M89.8443 11.3482C89.6065 10.9518 89.1703 10.7139 88.6549 10.7139H54.6771C54.122 10.7139 53.2498 10.7139 52.3379 11.6258C52.0603 11.9033 51.8621 12.2205 51.7431 12.4584C51.4656 12.9738 51.2674 13.3306 50.3158 13.3306H45.3599C44.448 13.3306 44.2101 12.9738 43.9326 12.4584C43.774 12.1808 43.6154 11.9033 43.3379 11.6258C42.426 10.7139 41.5537 10.7139 40.9987 10.7139H7.06047C6.5054 10.7139 6.06928 10.9518 5.87104 11.3482C5.63316 11.7447 5.67281 12.2601 5.95034 12.6962L6.54505 13.7271C6.86223 14.2821 7.29835 14.3614 7.61553 14.4407C7.89306 14.4804 8.0913 14.52 8.28954 14.9165L8.8446 15.868C9.28072 16.661 9.75649 16.7403 10.1133 16.8196C10.3909 16.8592 10.6684 16.8989 11.0252 17.5332C11.382 18.1676 11.8975 19.1191 13.2058 19.5156C13.3248 19.5553 25.8534 23.2028 25.893 23.2028C27.2014 23.6389 27.5582 24.1147 27.9547 24.7094C28.1926 25.0662 28.8666 26.0178 30.4525 26.4539L42.5053 29.705C43.8137 30.0618 44.6066 29.4275 45.0031 29.0706L47.1837 27.009C47.5009 26.7314 47.6595 26.6125 47.8577 26.6125C48.0559 26.6125 48.2145 26.7314 48.5317 27.009L50.7123 29.0706C51.1088 29.3878 51.9017 30.0222 53.2101 29.705L65.2629 26.4539C66.8885 26.0178 67.5228 25.0662 67.7607 24.7094C68.1572 24.1147 68.514 23.5993 69.8224 23.2028C69.8224 23.2028 82.351 19.5553 82.5096 19.5156C83.7783 19.1191 84.3334 18.1676 84.6902 17.5332C85.047 16.8989 85.2849 16.8592 85.5624 16.8196C85.9193 16.7403 86.4347 16.661 86.8708 15.868L87.4258 14.9165C87.6637 14.52 87.8223 14.4804 88.0999 14.4407C88.417 14.3614 88.8532 14.2821 89.1703 13.7271L89.7651 12.6962C90.0426 12.2205 90.0822 11.7447 89.8443 11.3482ZM66.6506 14.1235V20.0707H29.0648V14.1235H66.6506ZM53.1705 28.8328C52.2586 28.8328 51.9414 28.0398 51.7035 27.4054C51.426 26.6918 49.959 22.0134 49.5229 20.7447H51.3863C52.3775 22.4495 54.2013 25.4627 54.9942 26.7314C55.1528 26.9693 55.5493 27.6433 56.263 28.0795C53.4083 28.8328 53.4876 28.8328 53.1705 28.8328ZM57.5713 27.6433C56.5405 27.6433 55.9854 26.8504 55.6682 26.335C54.9942 25.2645 53.448 22.6874 52.2982 20.7447H54.3599C55.6682 22.1323 58.4039 25.0266 59.4744 26.1367C59.633 26.2953 59.9898 26.6521 60.5052 26.9693C57.9678 27.6037 57.9678 27.6433 57.5713 27.6433ZM61.774 26.4936C60.981 26.4936 60.3863 25.9385 59.9898 25.542C59.0383 24.5905 56.7784 22.2116 55.3907 20.705H57.6506C59.0779 21.7755 62.3687 24.194 63.677 25.0662C63.9149 25.2248 64.3907 25.5024 64.9458 25.7006C62.0118 26.4936 62.0911 26.4936 61.774 26.4936ZM67.0867 24.2733C66.7299 24.8284 66.4524 25.1059 65.818 25.1059C65.2233 25.1059 64.6286 24.8284 64.1132 24.4715C63.0427 23.7182 60.5449 21.9341 58.959 20.7447H61.655C64.9457 22.3702 66.3334 23.1235 67.2453 23.4011C67.4039 23.4407 67.5625 23.4803 67.7211 23.52C67.4435 23.7182 67.2849 23.9958 67.0867 24.2733ZM68.0779 22.727C67.3246 22.727 66.3334 22.2116 63.3202 20.705H66.2541L70.3774 21.7359C70.655 21.8152 70.9325 21.8548 71.1704 21.9341C68.8312 22.6478 68.4744 22.727 68.0779 22.727ZM76.0867 20.5068C73.6682 21.2204 73.2717 21.379 72.5977 21.379C72.1219 21.379 71.5272 21.2997 70.536 21.0222L67.2849 20.1896V19.0398L76.0867 20.5068ZM78.6241 19.7931C77.8312 19.9914 77.1175 19.9121 76.0074 19.7138L67.3642 18.2865V17.3746L81.5184 18.9605L78.6241 19.7931ZM83.9369 17.1368C83.8179 17.335 83.699 17.5332 83.5801 17.6918C83.1043 18.3658 82.7871 18.3262 81.2805 18.1676L67.2849 16.5817V15.7094L83.4215 16.661C83.5404 16.661 83.8576 16.7006 84.2144 16.7006C84.1351 16.8196 84.0162 16.9782 83.9369 17.1368ZM86.6725 14.4804C86.6725 14.4804 86.3554 14.9958 86.2364 15.2733C85.7607 16.0266 85.5228 16.0266 84.1748 15.9077L67.3246 14.9165V14.2028H86.8708C86.7915 14.3218 86.7518 14.4011 86.6725 14.4804ZM89.091 12.2601L88.6549 13.0134C88.3377 13.4892 88.2188 13.4892 87.188 13.4892H52.1C52.4568 13.0531 52.5757 12.6169 52.9722 12.2205C53.6462 11.5465 54.2013 11.5465 54.7167 11.5465H88.6946C88.9325 11.5465 89.091 11.6258 89.1703 11.7447C89.21 11.8636 89.21 12.0619 89.091 12.2601ZM44.2894 28.6345C44.448 28.4363 44.567 28.1587 44.7652 27.683C45.0427 26.9693 46.589 22.0927 47.0251 20.7447H48.7299C49.1661 22.1323 50.7123 26.9693 50.9898 27.683C51.1484 28.1587 51.307 28.4363 51.4656 28.6345C51.426 28.5949 51.3467 28.5552 51.307 28.5156L49.1264 26.4539C48.7696 26.1367 48.4128 25.8195 47.8973 25.8195C47.3819 25.8195 46.9855 26.1367 46.6683 26.4539L44.4877 28.5156C44.4084 28.5552 44.3291 28.5949 44.2894 28.6345ZM39.4524 28.0398C40.1661 27.6037 40.6022 26.9297 40.7212 26.6918C41.5141 25.4627 43.3379 22.4099 44.3291 20.705H46.1925C45.796 21.9737 44.2894 26.6521 44.0119 27.3658C43.774 28.0002 43.4568 28.7931 42.5449 28.7931C42.2278 28.8328 42.3071 28.8328 39.4524 28.0398ZM35.2498 26.9297C35.7652 26.6521 36.1221 26.2953 36.2806 26.0971C37.3511 25.0266 40.1264 22.0927 41.3952 20.705H43.4568C42.307 22.6478 40.7608 25.2248 40.0868 26.2953C39.7696 26.8107 39.2146 27.6037 38.1837 27.6037C37.7872 27.6433 37.7476 27.6037 35.2498 26.9297ZM30.8093 25.7006C31.3644 25.542 31.8401 25.2248 32.078 25.0662C33.3864 24.194 36.6771 21.7755 38.1044 20.705H40.3643C38.9767 22.2116 36.7168 24.5905 35.7652 25.542C35.3687 25.9385 34.8137 26.4936 33.9811 26.4936C33.6639 26.4936 33.7036 26.4936 30.8093 25.7006ZM28.034 23.4803C28.1926 23.4407 28.3511 23.4407 28.5097 23.3614C29.4613 23.0839 30.8489 22.3702 34.1 20.705H36.7961C35.1705 21.8944 32.7124 23.6786 31.6419 24.4319C31.1661 24.7887 30.5318 25.0662 29.937 25.0662C29.3027 25.0662 29.0252 24.7887 28.6683 24.2337C28.4701 23.9958 28.2719 23.7182 28.034 23.4803ZM24.5846 21.9737C24.8225 21.9341 25.1001 21.8548 25.3776 21.7755L29.5009 20.7447H32.4348C29.4216 22.2513 28.4304 22.7667 27.6771 22.7667C27.241 22.727 26.8842 22.6477 24.5846 21.9737ZM28.4304 19.0398V20.1896L25.1794 21.0222C24.1882 21.2601 23.5935 21.379 23.1177 21.379C22.4437 21.379 22.0472 21.2204 19.6287 20.5068L28.4304 19.0398ZM14.2763 18.9605L28.4304 17.3746V18.2865L19.7873 19.7138C18.6375 19.9121 17.9239 19.9914 17.1706 19.7931L14.2763 18.9605ZM11.501 16.7006C11.8182 16.661 12.175 16.661 12.2939 16.661L28.4304 15.7094V16.5817L14.4349 18.1676C12.9283 18.3262 12.6111 18.3658 12.1353 17.6918C12.0164 17.5332 11.8975 17.335 11.7785 17.1368C11.6992 16.9782 11.6199 16.8196 11.501 16.7006ZM8.88425 14.2425H28.4304V14.9561L11.5803 15.9473C10.2323 16.0266 9.99438 16.0663 9.51861 15.313C9.36002 15.0354 9.08249 14.52 9.08249 14.52C9.00319 14.4011 8.9239 14.3218 8.88425 14.2425ZM6.5847 11.7447C6.66399 11.6258 6.82258 11.5465 7.06047 11.5465H41.0383C41.5538 11.5465 42.1485 11.5465 42.7828 12.2205C43.1793 12.6169 43.2982 13.0531 43.6551 13.4892H8.56707C7.53624 13.4892 7.41729 13.4892 7.10012 13.0134L6.66399 12.2601C6.54505 12.0619 6.5054 11.8636 6.5847 11.7447Z" fill="white"/>
</svg>
