<svg width="632" height="21" viewBox="0 0 632 21" fill="none" xmlns="http://www.w3.org/2000/svg">
<path opacity="0.7" d="M5.14 15.28C4.38 15.28 3.66 15.1867 2.98 15C2.31333 14.8133 1.68667 14.5533 1.1 14.22L0.88 12.18C2.12 13.1533 3.52667 13.64 5.1 13.64C6.06 13.64 6.82 13.4467 7.38 13.06C7.94 12.66 8.22 12.1067 8.22 11.4C8.22 10.8667 8.04667 10.4067 7.7 10.02C7.35333 9.63333 6.77333 9.27333 5.96 8.94L4.02 8.12C2.98 7.68 2.21333 7.15333 1.72 6.54C1.22667 5.91333 0.98 5.17333 0.98 4.32C0.98 3.12 1.40667 2.17333 2.26 1.48C3.12667 0.786666 4.28667 0.439999 5.74 0.439999C6.35333 0.439999 6.94667 0.506666 7.52 0.639999C8.10667 0.773333 8.66 0.973333 9.18 1.24L9.42 3.24C8.9 2.88 8.32 2.59333 7.68 2.38C7.05333 2.16667 6.41333 2.06 5.76 2.06C4.86667 2.06 4.15333 2.25333 3.62 2.64C3.1 3.02667 2.84 3.55333 2.84 4.22C2.84 4.7 3 5.12 3.32 5.48C3.65333 5.82667 4.19333 6.16 4.94 6.48L6.88 7.32C8 7.8 8.82667 8.35333 9.36 8.98C9.89333 9.60667 10.16 10.3933 10.16 11.34C10.16 12.58 9.70667 13.5467 8.8 14.24C7.89333 14.9333 6.67333 15.28 5.14 15.28ZM17.497 15.28C16.337 15.28 15.3304 15.06 14.477 14.62C13.6237 14.1667 12.9637 13.5333 12.497 12.72C12.0304 11.8933 11.797 10.92 11.797 9.8C11.797 8.73333 12.0104 7.79333 12.437 6.98C12.8637 6.15333 13.4504 5.51333 14.197 5.06C14.957 4.59333 15.8237 4.36 16.797 4.36C18.2237 4.36 19.3504 4.83333 20.177 5.78C21.0037 6.71333 21.417 7.99333 21.417 9.62V10.22H13.637C13.7437 11.3267 14.1437 12.1867 14.837 12.8C15.5304 13.4133 16.457 13.72 17.617 13.72C18.9504 13.72 20.137 13.3267 21.177 12.54L21.037 14.34C20.0237 14.9667 18.8437 15.28 17.497 15.28ZM13.677 8.86H19.557C19.5037 7.9 19.2304 7.16 18.737 6.64C18.257 6.10667 17.6104 5.84 16.797 5.84C15.957 5.84 15.257 6.11333 14.697 6.66C14.137 7.19333 13.797 7.92667 13.677 8.86ZM32.1261 15.12C30.7794 15.16 29.9928 14.5867 29.7661 13.4C29.3661 13.9733 28.8594 14.4267 28.2461 14.76C27.6328 15.0933 26.9461 15.26 26.1861 15.26C25.2528 15.26 24.4994 15 23.9261 14.48C23.3661 13.96 23.0861 13.2667 23.0861 12.4C23.0861 11.48 23.4128 10.74 24.0661 10.18C24.7328 9.60667 25.7528 9.18 27.1261 8.9L29.6861 8.4V8.36C29.6861 7.52 29.4861 6.90667 29.0861 6.52C28.6994 6.13333 28.0861 5.94 27.2461 5.94C25.8994 5.94 24.6728 6.36667 23.5661 7.22L23.7061 5.4C24.1861 5.06667 24.7528 4.81333 25.4061 4.64C26.0594 4.45333 26.7328 4.36 27.4261 4.36C28.7328 4.36 29.7328 4.7 30.4261 5.38C31.1194 6.04667 31.4661 7.01333 31.4661 8.28V12.34C31.4661 12.8333 31.5461 13.1733 31.7061 13.36C31.8794 13.5467 32.1861 13.6467 32.6261 13.66L32.1261 15.12ZM29.6861 11.96V9.74L27.5661 10.18C26.6328 10.3667 25.9528 10.6267 25.5261 10.96C25.0994 11.28 24.8861 11.7133 24.8861 12.26C24.8861 12.7267 25.0394 13.0933 25.3461 13.36C25.6661 13.6267 26.0994 13.76 26.6461 13.76C27.2461 13.76 27.8061 13.6067 28.3261 13.3C28.8594 12.98 29.3128 12.5333 29.6861 11.96ZM34.5083 15V4.64H36.1683V6.48C36.4483 5.88 36.8483 5.38 37.3683 4.98C37.8883 4.56667 38.5083 4.36 39.2283 4.36C39.4549 4.36 39.6883 4.38667 39.9283 4.44C40.1816 4.48 40.4349 4.56 40.6883 4.68L40.8083 6.48C40.2216 6.25333 39.6683 6.14 39.1483 6.14C38.5483 6.14 37.9883 6.29333 37.4683 6.6C36.9616 6.90667 36.5816 7.36 36.3283 7.96V15H34.5083ZM46.7659 15.28C45.6859 15.28 44.7459 15.06 43.9459 14.62C43.1459 14.1667 42.5259 13.5333 42.0859 12.72C41.6459 11.9067 41.4259 10.9533 41.4259 9.86C41.4259 8.76667 41.6526 7.80667 42.1059 6.98C42.5593 6.15333 43.1926 5.51333 44.0059 5.06C44.8326 4.59333 45.7926 4.36 46.8859 4.36C48.1259 4.36 49.2393 4.66667 50.2259 5.28L50.3859 7.16C49.3193 6.37333 48.1859 5.98 46.9859 5.98C45.8526 5.98 44.9526 6.32667 44.2859 7.02C43.6193 7.7 43.2859 8.63333 43.2859 9.82C43.2859 11.0067 43.6126 11.9467 44.2659 12.64C44.9326 13.32 45.8326 13.66 46.9659 13.66C48.1793 13.66 49.3126 13.2533 50.3659 12.44L50.2259 14.34C49.7326 14.6333 49.1859 14.86 48.5859 15.02C47.9993 15.1933 47.3926 15.28 46.7659 15.28ZM59.5747 15V8.48C59.5747 6.78667 58.8547 5.94 57.4147 5.94C56.8014 5.94 56.2347 6.09333 55.7147 6.4C55.1947 6.69333 54.7547 7.11333 54.3947 7.66V15H52.5747V0.259999L54.3947 0.0399995V6.12C54.808 5.54667 55.3214 5.11333 55.9347 4.82C56.548 4.51333 57.1947 4.36 57.8747 4.36C58.9814 4.36 59.8414 4.71333 60.4547 5.42C61.0814 6.12667 61.3947 7.06667 61.3947 8.24V15H59.5747ZM74.0666 15.28C73.2666 15.28 72.5399 15.1067 71.8866 14.76C71.2466 14.4133 70.7532 13.9467 70.4066 13.36V15H68.7466V0.259999L70.5666 0.0399995V6.1C70.9266 5.56667 71.4132 5.14667 72.0266 4.84C72.6532 4.52 73.3332 4.36 74.0666 4.36C74.9866 4.36 75.8199 4.6 76.5666 5.08C77.3266 5.54667 77.9266 6.19333 78.3666 7.02C78.8199 7.83333 79.0466 8.76667 79.0466 9.82C79.0466 10.86 78.8266 11.7933 78.3866 12.62C77.9466 13.4467 77.3532 14.1 76.6066 14.58C75.8599 15.0467 75.0132 15.28 74.0666 15.28ZM70.5666 7.62V12.02C70.8866 12.5533 71.3199 12.9733 71.8666 13.28C72.4132 13.5733 73.0066 13.72 73.6466 13.72C74.3399 13.72 74.9532 13.5533 75.4866 13.22C76.0199 12.8867 76.4332 12.4267 76.7266 11.84C77.0332 11.2533 77.1866 10.5867 77.1866 9.84C77.1866 9.06667 77.0332 8.38667 76.7266 7.8C76.4199 7.21333 75.9999 6.75333 75.4666 6.42C74.9332 6.08667 74.3199 5.92 73.6266 5.92C72.9866 5.92 72.3932 6.07333 71.8466 6.38C71.2999 6.68667 70.8732 7.1 70.5666 7.62ZM81.5703 20.08C80.917 20.08 80.337 19.9267 79.8303 19.62L79.6503 17.84C80.2236 18.2533 80.8036 18.46 81.3903 18.46C81.857 18.46 82.2503 18.3133 82.5703 18.02C82.9036 17.7267 83.2036 17.2667 83.4703 16.64L84.1303 15.08L79.7903 4.64H81.7903L85.0503 12.96L88.2703 4.64H90.2303L85.0103 17.26C84.597 18.2733 84.117 18.9933 83.5703 19.42C83.037 19.86 82.3703 20.08 81.5703 20.08ZM103.342 15.28C101.862 15.28 100.562 14.9733 99.4419 14.36C98.3219 13.7333 97.4485 12.8667 96.8219 11.76C96.2085 10.6533 95.9019 9.37333 95.9019 7.92C95.9019 6.46667 96.2152 5.18 96.8419 4.06C97.4685 2.92667 98.3419 2.04 99.4619 1.4C100.582 0.759999 101.875 0.439999 103.342 0.439999C104.155 0.439999 104.922 0.539999 105.642 0.739999C106.362 0.926665 107.055 1.23333 107.722 1.66L107.962 3.7C106.495 2.63333 104.969 2.1 103.382 2.1C102.275 2.1 101.309 2.34667 100.482 2.84C99.6552 3.33333 99.0085 4.01333 98.5419 4.88C98.0885 5.74667 97.8619 6.74 97.8619 7.86C97.8619 8.98 98.0819 9.97333 98.5219 10.84C98.9752 11.7067 99.6152 12.3867 100.442 12.88C101.282 13.36 102.275 13.6 103.422 13.6C105.022 13.6 106.562 13.0933 108.042 12.08L107.822 14.06C107.102 14.4733 106.375 14.78 105.642 14.98C104.909 15.18 104.142 15.28 103.342 15.28ZM113.962 15.28C112.869 15.28 112.015 14.9267 111.402 14.22C110.789 13.5133 110.482 12.5733 110.482 11.4V4.64H112.302V11.16C112.302 12.8533 113.009 13.7 114.422 13.7C115.035 13.7 115.595 13.5533 116.102 13.26C116.609 12.9533 117.042 12.5267 117.402 11.98V4.64H119.222V15H117.562V13.32C117.149 13.96 116.622 14.4467 115.982 14.78C115.342 15.1133 114.669 15.28 113.962 15.28ZM125.122 15.28C123.856 15.28 122.716 14.9667 121.702 14.34L121.522 12.44C122.016 12.8267 122.582 13.14 123.222 13.38C123.876 13.6067 124.516 13.72 125.142 13.72C125.796 13.72 126.329 13.5933 126.742 13.34C127.169 13.0867 127.382 12.7067 127.382 12.2C127.382 11.8533 127.262 11.5733 127.022 11.36C126.782 11.1333 126.329 10.9133 125.662 10.7L124.382 10.3C122.596 9.74 121.702 8.74 121.702 7.3C121.702 6.38 122.049 5.66 122.742 5.14C123.449 4.62 124.369 4.36 125.502 4.36C126.622 4.36 127.622 4.62 128.502 5.14L128.702 6.96C127.702 6.25333 126.622 5.9 125.462 5.9C124.809 5.9 124.296 6.01333 123.922 6.24C123.562 6.46667 123.382 6.79333 123.382 7.22C123.382 7.52667 123.502 7.79333 123.742 8.02C123.982 8.24667 124.429 8.47333 125.082 8.7L126.302 9.08C127.316 9.41333 128.042 9.82667 128.482 10.32C128.922 10.8 129.142 11.4067 129.142 12.14C129.142 13.1133 128.776 13.88 128.042 14.44C127.322 15 126.349 15.28 125.122 15.28ZM135.124 15.18C134.11 15.18 133.337 14.8933 132.804 14.32C132.27 13.7333 132.004 12.8933 132.004 11.8V6.16H130.084V4.64H132.004V2.44L133.824 2.16V4.64H136.924L136.824 6.16H133.824V11.6C133.824 12.28 133.95 12.78 134.204 13.1C134.47 13.4067 134.89 13.56 135.464 13.56C136.01 13.56 136.557 13.3867 137.104 13.04L136.964 14.74C136.39 15.0333 135.777 15.18 135.124 15.18ZM143.662 15.28C142.622 15.28 141.695 15.0533 140.882 14.6C140.069 14.1333 139.429 13.4867 138.962 12.66C138.495 11.8333 138.262 10.8867 138.262 9.82C138.262 8.75333 138.495 7.81333 138.962 7C139.429 6.17333 140.069 5.52667 140.882 5.06C141.695 4.59333 142.622 4.36 143.662 4.36C144.715 4.36 145.642 4.59333 146.442 5.06C147.255 5.52667 147.895 6.17333 148.362 7C148.829 7.81333 149.062 8.75333 149.062 9.82C149.062 10.8867 148.829 11.8333 148.362 12.66C147.895 13.4867 147.255 14.1333 146.442 14.6C145.642 15.0533 144.715 15.28 143.662 15.28ZM143.662 13.68C144.355 13.68 144.962 13.52 145.482 13.2C146.015 12.8667 146.435 12.4133 146.742 11.84C147.049 11.2533 147.202 10.58 147.202 9.82C147.202 9.06 147.049 8.39333 146.742 7.82C146.435 7.23333 146.015 6.78 145.482 6.46C144.962 6.12667 144.355 5.96 143.662 5.96C142.982 5.96 142.375 6.12667 141.842 6.46C141.309 6.78 140.889 7.23333 140.582 7.82C140.275 8.39333 140.122 9.06 140.122 9.82C140.122 10.58 140.275 11.2533 140.582 11.84C140.889 12.4133 141.309 12.8667 141.842 13.2C142.375 13.52 142.982 13.68 143.662 13.68ZM158.382 15V8.48C158.382 6.78667 157.669 5.94 156.242 5.94C155.629 5.94 155.062 6.09333 154.542 6.4C154.036 6.69333 153.602 7.11333 153.242 7.66V15H151.422V4.64H153.082V6.3C153.482 5.7 153.996 5.22667 154.622 4.88C155.262 4.53333 155.956 4.36 156.702 4.36C157.476 4.36 158.136 4.54667 158.682 4.92C159.242 5.29333 159.649 5.81333 159.902 6.48C160.302 5.81333 160.829 5.29333 161.482 4.92C162.149 4.54667 162.876 4.36 163.662 4.36C164.742 4.36 165.596 4.71333 166.222 5.42C166.849 6.11333 167.162 7.05333 167.162 8.24V15H165.342V8.48C165.342 6.78667 164.629 5.94 163.202 5.94C162.589 5.94 162.022 6.09333 161.502 6.4C160.982 6.70667 160.542 7.14 160.182 7.7C160.196 7.87333 160.202 8.05333 160.202 8.24V15H158.382ZM175.056 15.28C173.896 15.28 172.889 15.06 172.036 14.62C171.182 14.1667 170.522 13.5333 170.056 12.72C169.589 11.8933 169.356 10.92 169.356 9.8C169.356 8.73333 169.569 7.79333 169.996 6.98C170.422 6.15333 171.009 5.51333 171.756 5.06C172.516 4.59333 173.382 4.36 174.356 4.36C175.782 4.36 176.909 4.83333 177.736 5.78C178.562 6.71333 178.976 7.99333 178.976 9.62V10.22H171.196C171.302 11.3267 171.702 12.1867 172.396 12.8C173.089 13.4133 174.016 13.72 175.176 13.72C176.509 13.72 177.696 13.3267 178.736 12.54L178.596 14.34C177.582 14.9667 176.402 15.28 175.056 15.28ZM171.236 8.86H177.116C177.062 7.9 176.789 7.16 176.296 6.64C175.816 6.10667 175.169 5.84 174.356 5.84C173.516 5.84 172.816 6.11333 172.256 6.66C171.696 7.19333 171.356 7.92667 171.236 8.86ZM181.325 15V4.64H182.985V6.48C183.265 5.88 183.665 5.38 184.185 4.98C184.705 4.56667 185.325 4.36 186.045 4.36C186.271 4.36 186.505 4.38667 186.745 4.44C186.998 4.48 187.251 4.56 187.505 4.68L187.625 6.48C187.038 6.25333 186.485 6.14 185.965 6.14C185.365 6.14 184.805 6.29333 184.285 6.6C183.778 6.90667 183.398 7.36 183.145 7.96V15H181.325ZM194.044 15V0.719999H195.784L204.184 12.1V0.719999H205.924V15H204.204L195.764 3.6V15H194.044ZM217.497 15.12C216.151 15.16 215.364 14.5867 215.137 13.4C214.737 13.9733 214.231 14.4267 213.617 14.76C213.004 15.0933 212.317 15.26 211.557 15.26C210.624 15.26 209.871 15 209.297 14.48C208.737 13.96 208.457 13.2667 208.457 12.4C208.457 11.48 208.784 10.74 209.437 10.18C210.104 9.60667 211.124 9.18 212.497 8.9L215.057 8.4V8.36C215.057 7.52 214.857 6.90667 214.457 6.52C214.071 6.13333 213.457 5.94 212.617 5.94C211.271 5.94 210.044 6.36667 208.937 7.22L209.077 5.4C209.557 5.06667 210.124 4.81333 210.777 4.64C211.431 4.45333 212.104 4.36 212.797 4.36C214.104 4.36 215.104 4.7 215.797 5.38C216.491 6.04667 216.837 7.01333 216.837 8.28V12.34C216.837 12.8333 216.917 13.1733 217.077 13.36C217.251 13.5467 217.557 13.6467 217.997 13.66L217.497 15.12ZM215.057 11.96V9.74L212.937 10.18C212.004 10.3667 211.324 10.6267 210.897 10.96C210.471 11.28 210.257 11.7133 210.257 12.26C210.257 12.7267 210.411 13.0933 210.717 13.36C211.037 13.6267 211.471 13.76 212.017 13.76C212.617 13.76 213.177 13.6067 213.697 13.3C214.231 12.98 214.684 12.5333 215.057 11.96ZM226.839 15V8.48C226.839 6.78667 226.126 5.94 224.699 5.94C224.086 5.94 223.519 6.09333 222.999 6.4C222.493 6.69333 222.059 7.11333 221.699 7.66V15H219.879V4.64H221.539V6.3C221.939 5.7 222.453 5.22667 223.079 4.88C223.719 4.53333 224.413 4.36 225.159 4.36C225.933 4.36 226.593 4.54667 227.139 4.92C227.699 5.29333 228.106 5.81333 228.359 6.48C228.759 5.81333 229.286 5.29333 229.939 4.92C230.606 4.54667 231.333 4.36 232.119 4.36C233.199 4.36 234.053 4.71333 234.679 5.42C235.306 6.11333 235.619 7.05333 235.619 8.24V15H233.799V8.48C233.799 6.78667 233.086 5.94 231.659 5.94C231.046 5.94 230.479 6.09333 229.959 6.4C229.439 6.70667 228.999 7.14 228.639 7.7C228.653 7.87333 228.659 8.05333 228.659 8.24V15H226.839ZM243.513 15.28C242.353 15.28 241.346 15.06 240.493 14.62C239.639 14.1667 238.979 13.5333 238.513 12.72C238.046 11.8933 237.813 10.92 237.813 9.8C237.813 8.73333 238.026 7.79333 238.453 6.98C238.879 6.15333 239.466 5.51333 240.213 5.06C240.973 4.59333 241.839 4.36 242.813 4.36C244.239 4.36 245.366 4.83333 246.193 5.78C247.019 6.71333 247.433 7.99333 247.433 9.62V10.22H239.653C239.759 11.3267 240.159 12.1867 240.853 12.8C241.546 13.4133 242.473 13.72 243.633 13.72C244.966 13.72 246.153 13.3267 247.193 12.54L247.053 14.34C246.039 14.9667 244.859 15.28 243.513 15.28ZM239.693 8.86H245.573C245.519 7.9 245.246 7.16 244.753 6.64C244.273 6.10667 243.626 5.84 242.813 5.84C241.973 5.84 241.273 6.11333 240.713 6.66C240.153 7.19333 239.813 7.92667 239.693 8.86ZM250.162 18.38L248.802 18.18C249.082 17.3933 249.308 16.52 249.482 15.56C249.668 14.6 249.775 13.72 249.802 12.92L251.762 12.62C251.735 13.26 251.648 13.9267 251.502 14.62C251.355 15.3133 251.168 15.98 250.942 16.62C250.715 17.2733 250.455 17.86 250.162 18.38ZM266.055 15.28C264.989 15.28 264.002 15.1 263.095 14.74C262.202 14.3667 261.422 13.8467 260.755 13.18C260.102 12.5133 259.589 11.7333 259.215 10.84C258.855 9.93333 258.675 8.94 258.675 7.86C258.675 6.78 258.855 5.79333 259.215 4.9C259.589 3.99333 260.102 3.20667 260.755 2.54C261.422 1.87333 262.202 1.36 263.095 0.999999C264.002 0.626666 264.989 0.439999 266.055 0.439999C267.122 0.439999 268.102 0.626666 268.995 0.999999C269.902 1.36 270.682 1.87333 271.335 2.54C272.002 3.20667 272.515 3.99333 272.875 4.9C273.249 5.79333 273.435 6.78 273.435 7.86C273.435 8.94 273.249 9.93333 272.875 10.84C272.515 11.7333 272.002 12.5133 271.335 13.18C270.682 13.8467 269.902 14.3667 268.995 14.74C268.102 15.1 267.122 15.28 266.055 15.28ZM266.055 13.62C267.109 13.62 268.042 13.3733 268.855 12.88C269.669 12.3867 270.309 11.7067 270.775 10.84C271.242 9.97333 271.475 8.98 271.475 7.86C271.475 6.74 271.242 5.74667 270.775 4.88C270.309 4.01333 269.669 3.33333 268.855 2.84C268.042 2.34667 267.109 2.1 266.055 2.1C265.002 2.1 264.069 2.34667 263.255 2.84C262.442 3.33333 261.802 4.01333 261.335 4.88C260.869 5.74667 260.635 6.74 260.635 7.86C260.635 8.98 260.869 9.97333 261.335 10.84C261.802 11.7067 262.442 12.3867 263.255 12.88C264.069 13.3733 265.002 13.62 266.055 13.62ZM275.934 15V4.64H277.594V6.48C277.874 5.88 278.274 5.38 278.794 4.98C279.314 4.56667 279.934 4.36 280.654 4.36C280.881 4.36 281.114 4.38667 281.354 4.44C281.607 4.48 281.861 4.56 282.114 4.68L282.234 6.48C281.647 6.25333 281.094 6.14 280.574 6.14C279.974 6.14 279.414 6.29333 278.894 6.6C278.387 6.90667 278.007 7.36 277.754 7.96V15H275.934ZM287.832 15.28C286.885 15.28 286.032 15.0467 285.272 14.58C284.525 14.1 283.932 13.4467 283.492 12.62C283.065 11.7933 282.852 10.86 282.852 9.82C282.852 8.76667 283.072 7.83333 283.512 7.02C283.965 6.19333 284.565 5.54667 285.312 5.08C286.072 4.6 286.912 4.36 287.832 4.36C288.565 4.36 289.238 4.52 289.852 4.84C290.478 5.14667 290.972 5.56667 291.332 6.1V0.259999L293.152 0.0399995V15H291.472V13.38C291.138 13.9667 290.645 14.4333 289.992 14.78C289.352 15.1133 288.632 15.28 287.832 15.28ZM291.332 11.98V7.66C291.025 7.12667 290.598 6.70667 290.052 6.4C289.505 6.08 288.905 5.92 288.252 5.92C287.572 5.92 286.965 6.08667 286.432 6.42C285.898 6.75333 285.478 7.22 285.172 7.82C284.865 8.40667 284.712 9.08667 284.712 9.86C284.712 10.6067 284.858 11.2733 285.152 11.86C285.458 12.4333 285.878 12.8867 286.412 13.22C286.945 13.5533 287.558 13.72 288.252 13.72C288.892 13.72 289.485 13.5667 290.032 13.26C290.578 12.9533 291.012 12.5267 291.332 11.98ZM301.188 15.28C300.028 15.28 299.022 15.06 298.168 14.62C297.315 14.1667 296.655 13.5333 296.188 12.72C295.722 11.8933 295.488 10.92 295.488 9.8C295.488 8.73333 295.702 7.79333 296.128 6.98C296.555 6.15333 297.142 5.51333 297.888 5.06C298.648 4.59333 299.515 4.36 300.488 4.36C301.915 4.36 303.042 4.83333 303.868 5.78C304.695 6.71333 305.108 7.99333 305.108 9.62V10.22H297.328C297.435 11.3267 297.835 12.1867 298.528 12.8C299.222 13.4133 300.148 13.72 301.308 13.72C302.642 13.72 303.828 13.3267 304.868 12.54L304.728 14.34C303.715 14.9667 302.535 15.28 301.188 15.28ZM297.368 8.86H303.248C303.195 7.9 302.922 7.16 302.428 6.64C301.948 6.10667 301.302 5.84 300.488 5.84C299.648 5.84 298.948 6.11333 298.388 6.66C297.828 7.19333 297.488 7.92667 297.368 8.86ZM307.458 15V4.64H309.118V6.48C309.398 5.88 309.798 5.38 310.318 4.98C310.838 4.56667 311.458 4.36 312.178 4.36C312.404 4.36 312.638 4.38667 312.878 4.44C313.131 4.48 313.384 4.56 313.638 4.68L313.758 6.48C313.171 6.25333 312.618 6.14 312.098 6.14C311.498 6.14 310.938 6.29333 310.418 6.6C309.911 6.90667 309.531 7.36 309.278 7.96V15H307.458ZM320.177 15V0.719999H321.917L330.317 12.1V0.719999H332.057V15H330.337L321.897 3.6V15H320.177ZM338.63 15.28C337.537 15.28 336.683 14.9267 336.07 14.22C335.457 13.5133 335.15 12.5733 335.15 11.4V4.64H336.97V11.16C336.97 12.8533 337.677 13.7 339.09 13.7C339.703 13.7 340.263 13.5533 340.77 13.26C341.277 12.9533 341.71 12.5267 342.07 11.98V4.64H343.89V15H342.23V13.32C341.817 13.96 341.29 14.4467 340.65 14.78C340.01 15.1133 339.337 15.28 338.63 15.28ZM353.89 15V8.48C353.89 6.78667 353.177 5.94 351.75 5.94C351.137 5.94 350.57 6.09333 350.05 6.4C349.543 6.69333 349.11 7.11333 348.75 7.66V15H346.93V4.64H348.59V6.3C348.99 5.7 349.503 5.22667 350.13 4.88C350.77 4.53333 351.463 4.36 352.21 4.36C352.983 4.36 353.643 4.54667 354.19 4.92C354.75 5.29333 355.157 5.81333 355.41 6.48C355.81 5.81333 356.337 5.29333 356.99 4.92C357.657 4.54667 358.383 4.36 359.17 4.36C360.25 4.36 361.103 4.71333 361.73 5.42C362.357 6.11333 362.67 7.05333 362.67 8.24V15H360.85V8.48C360.85 6.78667 360.137 5.94 358.71 5.94C358.097 5.94 357.53 6.09333 357.01 6.4C356.49 6.70667 356.05 7.14 355.69 7.7C355.703 7.87333 355.71 8.05333 355.71 8.24V15H353.89ZM370.863 15.28C370.063 15.28 369.337 15.1067 368.683 14.76C368.043 14.4133 367.55 13.9467 367.203 13.36V15H365.543V0.259999L367.363 0.0399995V6.1C367.723 5.56667 368.21 5.14667 368.823 4.84C369.45 4.52 370.13 4.36 370.863 4.36C371.783 4.36 372.617 4.6 373.363 5.08C374.123 5.54667 374.723 6.19333 375.163 7.02C375.617 7.83333 375.843 8.76667 375.843 9.82C375.843 10.86 375.623 11.7933 375.183 12.62C374.743 13.4467 374.15 14.1 373.403 14.58C372.657 15.0467 371.81 15.28 370.863 15.28ZM367.363 7.62V12.02C367.683 12.5533 368.117 12.9733 368.663 13.28C369.21 13.5733 369.803 13.72 370.443 13.72C371.137 13.72 371.75 13.5533 372.283 13.22C372.817 12.8867 373.23 12.4267 373.523 11.84C373.83 11.2533 373.983 10.5867 373.983 9.84C373.983 9.06667 373.83 8.38667 373.523 7.8C373.217 7.21333 372.797 6.75333 372.263 6.42C371.73 6.08667 371.117 5.92 370.423 5.92C369.783 5.92 369.19 6.07333 368.643 6.38C368.097 6.68667 367.67 7.1 367.363 7.62ZM383.2 15.28C382.04 15.28 381.033 15.06 380.18 14.62C379.327 14.1667 378.667 13.5333 378.2 12.72C377.733 11.8933 377.5 10.92 377.5 9.8C377.5 8.73333 377.713 7.79333 378.14 6.98C378.567 6.15333 379.153 5.51333 379.9 5.06C380.66 4.59333 381.527 4.36 382.5 4.36C383.927 4.36 385.053 4.83333 385.88 5.78C386.707 6.71333 387.12 7.99333 387.12 9.62V10.22H379.34C379.447 11.3267 379.847 12.1867 380.54 12.8C381.233 13.4133 382.16 13.72 383.32 13.72C384.653 13.72 385.84 13.3267 386.88 12.54L386.74 14.34C385.727 14.9667 384.547 15.28 383.2 15.28ZM379.38 8.86H385.26C385.207 7.9 384.933 7.16 384.44 6.64C383.96 6.10667 383.313 5.84 382.5 5.84C381.66 5.84 380.96 6.11333 380.4 6.66C379.84 7.19333 379.5 7.92667 379.38 8.86ZM389.469 15V4.64H391.129V6.48C391.409 5.88 391.809 5.38 392.329 4.98C392.849 4.56667 393.469 4.36 394.189 4.36C394.416 4.36 394.649 4.38667 394.889 4.44C395.143 4.48 395.396 4.56 395.649 4.68L395.769 6.48C395.183 6.25333 394.629 6.14 394.109 6.14C393.509 6.14 392.949 6.29333 392.429 6.6C391.923 6.90667 391.543 7.36 391.289 7.96V15H389.469ZM396.509 18.38L395.149 18.18C395.429 17.3933 395.656 16.52 395.829 15.56C396.016 14.6 396.123 13.72 396.149 12.92L398.109 12.62C398.083 13.26 397.996 13.9267 397.849 14.62C397.703 15.3133 397.516 15.98 397.289 16.62C397.063 17.2733 396.803 17.86 396.509 18.38ZM412.463 15.28C410.983 15.28 409.683 14.9733 408.563 14.36C407.443 13.7333 406.57 12.8667 405.943 11.76C405.33 10.6533 405.023 9.37333 405.023 7.92C405.023 6.46667 405.336 5.18 405.963 4.06C406.59 2.92667 407.463 2.04 408.583 1.4C409.703 0.759999 410.996 0.439999 412.463 0.439999C413.276 0.439999 414.043 0.539999 414.763 0.739999C415.483 0.926665 416.176 1.23333 416.843 1.66L417.083 3.7C415.616 2.63333 414.09 2.1 412.503 2.1C411.396 2.1 410.43 2.34667 409.603 2.84C408.776 3.33333 408.13 4.01333 407.663 4.88C407.21 5.74667 406.983 6.74 406.983 7.86C406.983 8.98 407.203 9.97333 407.643 10.84C408.096 11.7067 408.736 12.3867 409.563 12.88C410.403 13.36 411.396 13.6 412.543 13.6C414.143 13.6 415.683 13.0933 417.163 12.08L416.943 14.06C416.223 14.4733 415.496 14.78 414.763 14.98C414.03 15.18 413.263 15.28 412.463 15.28ZM424.443 15.28C423.403 15.28 422.476 15.0533 421.663 14.6C420.85 14.1333 420.21 13.4867 419.743 12.66C419.276 11.8333 419.043 10.8867 419.043 9.82C419.043 8.75333 419.276 7.81333 419.743 7C420.21 6.17333 420.85 5.52667 421.663 5.06C422.476 4.59333 423.403 4.36 424.443 4.36C425.496 4.36 426.423 4.59333 427.223 5.06C428.036 5.52667 428.676 6.17333 429.143 7C429.61 7.81333 429.843 8.75333 429.843 9.82C429.843 10.8867 429.61 11.8333 429.143 12.66C428.676 13.4867 428.036 14.1333 427.223 14.6C426.423 15.0533 425.496 15.28 424.443 15.28ZM424.443 13.68C425.136 13.68 425.743 13.52 426.263 13.2C426.796 12.8667 427.216 12.4133 427.523 11.84C427.83 11.2533 427.983 10.58 427.983 9.82C427.983 9.06 427.83 8.39333 427.523 7.82C427.216 7.23333 426.796 6.78 426.263 6.46C425.743 6.12667 425.136 5.96 424.443 5.96C423.763 5.96 423.156 6.12667 422.623 6.46C422.09 6.78 421.67 7.23333 421.363 7.82C421.056 8.39333 420.903 9.06 420.903 9.82C420.903 10.58 421.056 11.2533 421.363 11.84C421.67 12.4133 422.09 12.8667 422.623 13.2C423.156 13.52 423.763 13.68 424.443 13.68ZM439.204 15V8.48C439.204 6.78667 438.484 5.94 437.044 5.94C436.43 5.94 435.864 6.09333 435.344 6.4C434.824 6.69333 434.384 7.11333 434.024 7.66V15H432.204V4.64H433.864V6.32C434.277 5.68 434.804 5.19333 435.444 4.86C436.097 4.52667 436.784 4.36 437.504 4.36C438.61 4.36 439.47 4.71333 440.084 5.42C440.71 6.12667 441.024 7.06667 441.024 8.24V15H439.204ZM447.663 15.18C446.649 15.18 445.876 14.8933 445.343 14.32C444.809 13.7333 444.543 12.8933 444.543 11.8V6.16H442.623V4.64H444.543V2.44L446.363 2.16V4.64H449.463L449.363 6.16H446.363V11.6C446.363 12.28 446.489 12.78 446.743 13.1C447.009 13.4067 447.429 13.56 448.003 13.56C448.549 13.56 449.096 13.3867 449.643 13.04L449.503 14.74C448.929 15.0333 448.316 15.18 447.663 15.18ZM451.559 15V4.64H453.219V6.48C453.499 5.88 453.899 5.38 454.419 4.98C454.939 4.56667 455.559 4.36 456.279 4.36C456.506 4.36 456.739 4.38667 456.979 4.44C457.232 4.48 457.486 4.56 457.739 4.68L457.859 6.48C457.272 6.25333 456.719 6.14 456.199 6.14C455.599 6.14 455.039 6.29333 454.519 6.6C454.012 6.90667 453.632 7.36 453.379 7.96V15H451.559ZM467.81 15.12C466.463 15.16 465.676 14.5867 465.45 13.4C465.05 13.9733 464.543 14.4267 463.93 14.76C463.316 15.0933 462.63 15.26 461.87 15.26C460.936 15.26 460.183 15 459.61 14.48C459.05 13.96 458.77 13.2667 458.77 12.4C458.77 11.48 459.096 10.74 459.75 10.18C460.416 9.60667 461.436 9.18 462.81 8.9L465.37 8.4V8.36C465.37 7.52 465.17 6.90667 464.77 6.52C464.383 6.13333 463.77 5.94 462.93 5.94C461.583 5.94 460.356 6.36667 459.25 7.22L459.39 5.4C459.87 5.06667 460.436 4.81333 461.09 4.64C461.743 4.45333 462.416 4.36 463.11 4.36C464.416 4.36 465.416 4.7 466.11 5.38C466.803 6.04667 467.15 7.01333 467.15 8.28V12.34C467.15 12.8333 467.23 13.1733 467.39 13.36C467.563 13.5467 467.87 13.6467 468.31 13.66L467.81 15.12ZM465.37 11.96V9.74L463.25 10.18C462.316 10.3667 461.636 10.6267 461.21 10.96C460.783 11.28 460.57 11.7133 460.57 12.26C460.57 12.7267 460.723 13.0933 461.03 13.36C461.35 13.6267 461.783 13.76 462.33 13.76C462.93 13.76 463.49 13.6067 464.01 13.3C464.543 12.98 464.996 12.5333 465.37 11.96ZM474.852 15.28C473.772 15.28 472.832 15.06 472.032 14.62C471.232 14.1667 470.612 13.5333 470.172 12.72C469.732 11.9067 469.512 10.9533 469.512 9.86C469.512 8.76667 469.739 7.80667 470.192 6.98C470.645 6.15333 471.279 5.51333 472.092 5.06C472.919 4.59333 473.879 4.36 474.972 4.36C476.212 4.36 477.325 4.66667 478.312 5.28L478.472 7.16C477.405 6.37333 476.272 5.98 475.072 5.98C473.939 5.98 473.039 6.32667 472.372 7.02C471.705 7.7 471.372 8.63333 471.372 9.82C471.372 11.0067 471.699 11.9467 472.352 12.64C473.019 13.32 473.919 13.66 475.052 13.66C476.265 13.66 477.399 13.2533 478.452 12.44L478.312 14.34C477.819 14.6333 477.272 14.86 476.672 15.02C476.085 15.1933 475.479 15.28 474.852 15.28ZM484.421 15.18C483.407 15.18 482.634 14.8933 482.101 14.32C481.567 13.7333 481.301 12.8933 481.301 11.8V6.16H479.381V4.64H481.301V2.44L483.121 2.16V4.64H486.221L486.121 6.16H483.121V11.6C483.121 12.28 483.247 12.78 483.501 13.1C483.767 13.4067 484.187 13.56 484.761 13.56C485.307 13.56 485.854 13.3867 486.401 13.04L486.261 14.74C485.687 15.0333 485.074 15.18 484.421 15.18ZM492.97 15V0.719999H494.71L503.11 12.1V0.719999H504.85V15H503.13L494.69 3.6V15H492.97ZM511.423 15.28C510.33 15.28 509.476 14.9267 508.863 14.22C508.25 13.5133 507.943 12.5733 507.943 11.4V4.64H509.763V11.16C509.763 12.8533 510.47 13.7 511.883 13.7C512.496 13.7 513.056 13.5533 513.563 13.26C514.07 12.9533 514.503 12.5267 514.863 11.98V4.64H516.683V15H515.023V13.32C514.61 13.96 514.083 14.4467 513.443 14.78C512.803 15.1133 512.13 15.28 511.423 15.28ZM526.683 15V8.48C526.683 6.78667 525.97 5.94 524.543 5.94C523.93 5.94 523.363 6.09333 522.843 6.4C522.336 6.69333 521.903 7.11333 521.543 7.66V15H519.723V4.64H521.383V6.3C521.783 5.7 522.296 5.22667 522.923 4.88C523.563 4.53333 524.256 4.36 525.003 4.36C525.776 4.36 526.436 4.54667 526.983 4.92C527.543 5.29333 527.95 5.81333 528.203 6.48C528.603 5.81333 529.13 5.29333 529.783 4.92C530.45 4.54667 531.176 4.36 531.963 4.36C533.043 4.36 533.896 4.71333 534.523 5.42C535.15 6.11333 535.463 7.05333 535.463 8.24V15H533.643V8.48C533.643 6.78667 532.93 5.94 531.503 5.94C530.89 5.94 530.323 6.09333 529.803 6.4C529.283 6.70667 528.843 7.14 528.483 7.7C528.496 7.87333 528.503 8.05333 528.503 8.24V15H526.683ZM543.656 15.28C542.856 15.28 542.13 15.1067 541.476 14.76C540.836 14.4133 540.343 13.9467 539.996 13.36V15H538.336V0.259999L540.156 0.0399995V6.1C540.516 5.56667 541.003 5.14667 541.616 4.84C542.243 4.52 542.923 4.36 543.656 4.36C544.576 4.36 545.41 4.6 546.156 5.08C546.916 5.54667 547.516 6.19333 547.956 7.02C548.41 7.83333 548.636 8.76667 548.636 9.82C548.636 10.86 548.416 11.7933 547.976 12.62C547.536 13.4467 546.943 14.1 546.196 14.58C545.45 15.0467 544.603 15.28 543.656 15.28ZM540.156 7.62V12.02C540.476 12.5533 540.91 12.9733 541.456 13.28C542.003 13.5733 542.596 13.72 543.236 13.72C543.93 13.72 544.543 13.5533 545.076 13.22C545.61 12.8867 546.023 12.4267 546.316 11.84C546.623 11.2533 546.776 10.5867 546.776 9.84C546.776 9.06667 546.623 8.38667 546.316 7.8C546.01 7.21333 545.59 6.75333 545.056 6.42C544.523 6.08667 543.91 5.92 543.216 5.92C542.576 5.92 541.983 6.07333 541.436 6.38C540.89 6.68667 540.463 7.1 540.156 7.62ZM555.993 15.28C554.833 15.28 553.826 15.06 552.973 14.62C552.12 14.1667 551.46 13.5333 550.993 12.72C550.526 11.8933 550.293 10.92 550.293 9.8C550.293 8.73333 550.506 7.79333 550.933 6.98C551.36 6.15333 551.946 5.51333 552.693 5.06C553.453 4.59333 554.32 4.36 555.293 4.36C556.72 4.36 557.846 4.83333 558.673 5.78C559.5 6.71333 559.913 7.99333 559.913 9.62V10.22H552.133C552.24 11.3267 552.64 12.1867 553.333 12.8C554.026 13.4133 554.953 13.72 556.113 13.72C557.446 13.72 558.633 13.3267 559.673 12.54L559.533 14.34C558.52 14.9667 557.34 15.28 555.993 15.28ZM552.173 8.86H558.053C558 7.9 557.726 7.16 557.233 6.64C556.753 6.10667 556.106 5.84 555.293 5.84C554.453 5.84 553.753 6.11333 553.193 6.66C552.633 7.19333 552.293 7.92667 552.173 8.86ZM562.262 15V4.64H563.922V6.48C564.202 5.88 564.602 5.38 565.122 4.98C565.642 4.56667 566.262 4.36 566.982 4.36C567.209 4.36 567.442 4.38667 567.682 4.44C567.936 4.48 568.189 4.56 568.442 4.68L568.562 6.48C567.976 6.25333 567.422 6.14 566.902 6.14C566.302 6.14 565.742 6.29333 565.222 6.6C564.716 6.90667 564.336 7.36 564.082 7.96V15H562.262ZM579.521 15.28C578.481 15.28 577.555 15.0533 576.741 14.6C575.928 14.1333 575.288 13.4867 574.821 12.66C574.355 11.8333 574.121 10.8867 574.121 9.82C574.121 8.75333 574.355 7.81333 574.821 7C575.288 6.17333 575.928 5.52667 576.741 5.06C577.555 4.59333 578.481 4.36 579.521 4.36C580.575 4.36 581.501 4.59333 582.301 5.06C583.115 5.52667 583.755 6.17333 584.221 7C584.688 7.81333 584.921 8.75333 584.921 9.82C584.921 10.8867 584.688 11.8333 584.221 12.66C583.755 13.4867 583.115 14.1333 582.301 14.6C581.501 15.0533 580.575 15.28 579.521 15.28ZM579.521 13.68C580.215 13.68 580.821 13.52 581.341 13.2C581.875 12.8667 582.295 12.4133 582.601 11.84C582.908 11.2533 583.061 10.58 583.061 9.82C583.061 9.06 582.908 8.39333 582.601 7.82C582.295 7.23333 581.875 6.78 581.341 6.46C580.821 6.12667 580.215 5.96 579.521 5.96C578.841 5.96 578.235 6.12667 577.701 6.46C577.168 6.78 576.748 7.23333 576.441 7.82C576.135 8.39333 575.981 9.06 575.981 9.82C575.981 10.58 576.135 11.2533 576.441 11.84C576.748 12.4133 577.168 12.8667 577.701 13.2C578.235 13.52 578.841 13.68 579.521 13.68ZM587.282 15V4.64H588.942V6.48C589.222 5.88 589.622 5.38 590.142 4.98C590.662 4.56667 591.282 4.36 592.002 4.36C592.228 4.36 592.462 4.38667 592.702 4.44C592.955 4.48 593.208 4.56 593.462 4.68L593.582 6.48C592.995 6.25333 592.442 6.14 591.922 6.14C591.322 6.14 590.762 6.29333 590.242 6.6C589.735 6.90667 589.355 7.36 589.102 7.96V15H587.282ZM604.641 15L598.741 0.719999H600.761L605.501 12.48L610.221 0.719999H612.141L606.261 15H604.641ZM614.278 15V0.719999H616.158V15H614.278ZM619.532 15V0.719999H621.272L629.672 12.1V0.719999H631.412V15H629.692L621.252 3.6V15H619.532Z" fill="#E5E5E3"/>
</svg>
