<svg width="56" height="56" viewBox="0 0 56 56" fill="none" xmlns="http://www.w3.org/2000/svg">
<g filter="url(#filter0_i_2180_248711)">
<circle cx="28" cy="28" r="28" fill="url(#paint0_linear_2180_248711)"/>
</g>
<mask id="mask0_2180_248711" style="mask-type:alpha" maskUnits="userSpaceOnUse" x="0" y="0" width="56" height="56">
<circle cx="28" cy="28" r="28" fill="#707171"/>
</mask>
<g mask="url(#mask0_2180_248711)">
<path fill-rule="evenodd" clip-rule="evenodd" d="M17.9861 19.3794C15.8575 17.5229 15.9114 14.852 15.9606 12.406C15.9679 12.0439 15.9751 11.6867 15.9751 11.3378C15.9751 9.45742 16.7791 9.73171 17.837 10.0927C18.3256 10.2593 18.8683 10.4445 19.4109 10.4445C19.6201 10.4445 19.8292 10.4699 20.0352 10.5146C19.5197 9.63294 19.4109 8.72656 19.4109 8.72656H29.7184C33.4978 8.72656 36.59 11.8188 36.59 15.5982H38.3079C38.3079 15.5982 39.0316 17.7691 38.1674 19.4542C39.2691 20.0281 40.0258 21.182 40.0258 22.504C40.0258 24.3937 38.4797 25.9398 36.59 25.9398V27.6577C36.59 29.9358 35.6851 32.1206 34.0742 33.7314C32.4634 35.3423 30.2786 36.2473 28.0005 36.2473C25.7224 36.2473 23.5376 35.3423 21.9268 33.7314C20.3159 32.1206 19.411 29.9358 19.411 27.6577V25.9398C17.5213 25.9398 15.9751 24.3937 15.9751 22.504C15.9751 21.1218 16.8023 19.9234 17.9861 19.3794ZM46.8975 49.9905C46.8975 44.2871 42.2935 39.6831 36.59 39.6831H19.411C13.7075 39.6831 9.10352 44.2871 9.10352 49.9905V56.8621H46.8975V49.9905Z" fill="#D9D9D9"/>
<path fill-rule="evenodd" clip-rule="evenodd" d="M17.9861 19.3794C15.8575 17.5229 15.9114 14.852 15.9606 12.406C15.9679 12.0439 15.9751 11.6867 15.9751 11.3378C15.9751 9.45742 16.7791 9.73171 17.837 10.0927C18.3256 10.2593 18.8683 10.4445 19.4109 10.4445C19.6201 10.4445 19.8292 10.4699 20.0352 10.5146C19.5197 9.63294 19.4109 8.72656 19.4109 8.72656H29.7184C33.4978 8.72656 36.59 11.8188 36.59 15.5982H38.3079C38.3079 15.5982 39.0316 17.7691 38.1674 19.4542C39.2691 20.0281 40.0258 21.182 40.0258 22.504C40.0258 24.3937 38.4797 25.9398 36.59 25.9398V27.6577C36.59 29.9358 35.6851 32.1206 34.0742 33.7314C32.4634 35.3423 30.2786 36.2473 28.0005 36.2473C25.7224 36.2473 23.5376 35.3423 21.9268 33.7314C20.3159 32.1206 19.411 29.9358 19.411 27.6577V25.9398C17.5213 25.9398 15.9751 24.3937 15.9751 22.504C15.9751 21.1218 16.8023 19.9234 17.9861 19.3794ZM46.8975 49.9905C46.8975 44.2871 42.2935 39.6831 36.59 39.6831H19.411C13.7075 39.6831 9.10352 44.2871 9.10352 49.9905V56.8621H46.8975V49.9905Z" fill="url(#paint1_linear_2180_248711)"/>
</g>
<defs>
<filter id="filter0_i_2180_248711" x="0" y="0" width="56" height="58" filterUnits="userSpaceOnUse" color-interpolation-filters="sRGB">
<feFlood flood-opacity="0" result="BackgroundImageFix"/>
<feBlend mode="normal" in="SourceGraphic" in2="BackgroundImageFix" result="shape"/>
<feColorMatrix in="SourceAlpha" type="matrix" values="0 0 0 0 0 0 0 0 0 0 0 0 0 0 0 0 0 0 127 0" result="hardAlpha"/>
<feOffset dy="2"/>
<feGaussianBlur stdDeviation="13.8"/>
<feComposite in2="hardAlpha" operator="arithmetic" k2="-1" k3="1"/>
<feColorMatrix type="matrix" values="0 0 0 0 0 0 0 0 0 0 0 0 0 0 0 0 0 0 0.03 0"/>
<feBlend mode="normal" in2="shape" result="effect1_innerShadow_2180_248711"/>
</filter>
<linearGradient id="paint0_linear_2180_248711" x1="-0.147367" y1="-4.8577e-07" x2="31.7493" y2="77.6998" gradientUnits="userSpaceOnUse">
<stop stop-color="#707171"/>
<stop offset="1" stop-color="#161A11"/>
</linearGradient>
<linearGradient id="paint1_linear_2180_248711" x1="28.0005" y1="8.72656" x2="28.0005" y2="56.8621" gradientUnits="userSpaceOnUse">
<stop stop-color="#FEFFEB"/>
<stop offset="1" stop-color="#D6FFFC"/>
</linearGradient>
</defs>
</svg>
