<svg width="18" height="18" viewBox="0 0 18 18" fill="none" xmlns="http://www.w3.org/2000/svg">
<path d="M12.75 7.875C13.7855 7.875 14.625 7.03553 14.625 6C14.625 4.96447 13.7855 4.125 12.75 4.125M16.5 13.5C16.5 11.429 14.821 9.75 12.75 9.75" stroke="#FFFFFF" stroke-width="0.9"/>
<path d="M5.24998 7.875C4.21445 7.875 3.37498 7.03553 3.37498 6C3.37498 4.96447 4.21445 4.125 5.24998 4.125M1.5 13.5C1.5 11.429 3.17893 9.75 5.25 9.75" stroke="#FFFFFF" stroke-width="0.9"/>
<path d="M11.625 5.625C11.625 7.07475 10.4497 8.25 9 8.25C7.55025 8.25 6.375 7.07475 6.375 5.625C6.375 4.17525 7.55025 3 9 3C10.4497 3 11.625 4.17525 11.625 5.625Z" stroke="#FFFFFF" stroke-width="0.9"/>
<path d="M3.75 15H14.25C14.25 12.5147 11.8995 10.5 9 10.5C6.10051 10.5 3.75 12.5147 3.75 15Z" stroke="#FFFFFF" stroke-width="0.9"/>
</svg>