<svg width="14" height="15" viewBox="0 0 14 15" fill="none" xmlns="http://www.w3.org/2000/svg">
<path d="M1.16699 4.58187H3.4457L3.96722 3.99946C4.39512 3.46688 5.02806 3.28091 5.60215 3.51909L6.70615 3.99946M1.16699 9.80449H3.49928L4.65359 10.5476C5.75452 11.2563 6.30499 11.6108 6.90483 11.5676C6.93313 11.5656 6.9613 11.5628 6.98948 11.5595C7.58634 11.4882 8.05418 11.0365 8.98984 10.133L9.91308 9.24134" stroke="#00665E" stroke-width="0.9" stroke-linejoin="round"/>
<path d="M12.8228 4.71516H11.0872C10.4175 4.31112 9.65135 3.26751 8.19337 3.42287C7.86875 3.45745 7.23717 3.50804 6.5738 4.16621L5.52545 5.26266C5.31906 5.50937 5.03012 6.1427 5.52545 6.70236C6.0208 7.26201 6.67904 6.84767 6.94626 6.57053L7.60601 6.0332L10.7604 9.79904C10.7715 9.81228 10.7879 9.81993 10.8051 9.81993H12.8359" stroke="#00665E" stroke-width="0.9"/>
</svg>
