<svg width="24" height="24" viewBox="0 0 24 24" fill="none" xmlns="http://www.w3.org/2000/svg">
<path d="M3.5332 13.6935H6.07339" stroke="white" stroke-width="0.9" stroke-linejoin="round"/>
<path d="M20.4669 13.6935H17.9268" stroke="white" stroke-width="0.9" stroke-linejoin="round"/>
<path d="M9.45996 13.6935H14.5403" stroke="white" stroke-width="0.9" stroke-linejoin="round"/>
<path d="M3.5332 16.2336V18.7738H7.34348V16.2336" stroke="white" stroke-width="0.9" stroke-linecap="round" stroke-linejoin="round"/>
<path d="M16.6572 16.2336V18.7738H20.4675V16.2336" stroke="white" stroke-width="0.9" stroke-linecap="round" stroke-linejoin="round"/>
<path d="M5.65002 10.3065L3.5332 8.61304" stroke="white" stroke-width="0.9" stroke-linejoin="round"/>
<path d="M5.22656 10.3066L6.92002 5.2262H11.0808" stroke="white" stroke-width="0.9" stroke-linejoin="round"/>
<path d="M11.5005 10.3065H5.22666L3.5332 13.6931V16.2336H20.4678V13.6931V12.5" stroke="white" stroke-width="0.9" stroke-linejoin="round"/>
<path d="M19.6923 9.67164L22 12M21 6.5C21 4.01472 18.9853 2 16.5 2C14.0147 2 12 4.01472 12 6.5C12 8.98529 14.0147 11 16.5 11C18.9853 11 21 8.98529 21 6.5Z" stroke="white" stroke-width="0.9" stroke-linejoin="round"/>
</svg>
