<svg width="18" height="18" viewBox="0 0 18 18" fill="none" xmlns="http://www.w3.org/2000/svg">
<path d="M15 9L16.5 11.25V16.5H14.25V14.25H3.75V16.5H1.5V11.25L3 9M15 9L13.5 9.375H4.5L3 9M15 9L16.5 7.875M3 9L4.875 4.5H7.5M3 9L1.5 7.875" stroke="#CEDC00" stroke-width="0.9" stroke-linecap="square"/>
<path d="M13.5 12V12.0075" stroke="#CEDC00" stroke-width="0.9" stroke-linecap="square"/>
<path d="M4.5 12V12.0075" stroke="#CEDC00" stroke-width="0.9" stroke-linecap="square"/>
<path d="M9 2.25L9.375 3.75H9.75C9.93195 2.47793 11.0526 1.5 12.375 1.5C13.267 1.5 14.0552 1.94497 14.5295 2.625M15.75 6L15.375 4.5H15C14.8181 5.77207 13.6974 6.75 12.375 6.75C11.483 6.75 10.6949 6.30503 10.2205 5.625" stroke="#CEDC00" stroke-width="0.9" stroke-linecap="square"/>
</svg>
