<svg width="20" height="20" viewBox="0 0 20 20" fill="none" xmlns="http://www.w3.org/2000/svg">
<path d="M16.666 10L18.3327 12.5V18.3333H15.8327V15.8333H4.16602V18.3333H1.66602V12.5L3.33268 10M16.666 10L14.9993 10.4167H4.99935L3.33268 10M16.666 10L18.3327 8.75M3.33268 10L5.41602 5H8.33268M3.33268 10L1.66602 8.75" stroke="#00665E" stroke-width="0.9" stroke-linecap="square"/>
<path d="M15 13.3335V13.3418" stroke="#00665E" stroke-width="0.9" stroke-linecap="square"/>
<path d="M5 13.3335V13.3418" stroke="#00665E" stroke-width="0.9" stroke-linecap="square"/>
<path d="M10 2.49984L10.4167 4.1665H10.8333C11.0355 2.75309 12.2807 1.6665 13.75 1.6665C14.7412 1.6665 15.6168 2.16092 16.1438 2.9165M17.5 6.6665L17.0833 4.99984H16.6667C16.4645 6.41325 15.2193 7.49984 13.75 7.49984C12.7588 7.49984 11.8832 7.00542 11.3561 6.24984" stroke="#00665E" stroke-width="0.9" stroke-linecap="square"/>
</svg>
