<svg width="18" height="18" viewBox="0 0 18 18" fill="none" xmlns="http://www.w3.org/2000/svg">
<path d="M13.5 12V12.0075" stroke="#161A11" stroke-width="0.9" stroke-linecap="square"/>
<path d="M4.5 12V12.0075" stroke="#161A11" stroke-width="0.9" stroke-linecap="square"/>
<path d="M12.75 7.5C14.4069 7.5 15.75 6.15685 15.75 4.5C15.75 2.84315 14.4069 1.5 12.75 1.5C11.0931 1.5 9.75 2.84315 9.75 4.5C9.75 6.15685 11.0931 7.5 12.75 7.5Z" stroke="#161A11" stroke-width="0.9" stroke-linecap="square"/>
<path d="M12.75 5.99976L12.75 4.49976" stroke="#161A11" stroke-width="0.9" stroke-linecap="square"/>
<path d="M12.75 3.00745L12.75 2.99995" stroke="#161A11" stroke-width="0.9" stroke-linecap="square"/>
<path d="M15 9L16.5 11.25V16.5H14.25V14.25H3.75V16.5H1.5V11.25L3 9M15 9L13.5 9.375H4.5L3 9M15 9L16.5 7.875M3 9L4.875 4.5H7.5M3 9L1.5 7.875" stroke="#161A11" stroke-width="0.9" stroke-linecap="square"/>
</svg>
