<svg width="24" height="24" viewBox="0 0 24 24" fill="none" xmlns="http://www.w3.org/2000/svg">
<path d="M20 12L22 15V22H19V19H5V22H2V15L4 12M20 12L18 12.5H6L4 12M20 12L22 10.5M4 12L6.5 6H10M4 12L2 10.5" stroke="white" stroke-width="0.9" stroke-linecap="square"/>
<path d="M18 16V16.01" stroke="white" stroke-width="0.9" stroke-linecap="square"/>
<path d="M6 16V16.01" stroke="white" stroke-width="0.9" stroke-linecap="square"/>
<path d="M12 3L12.5 5H13C13.2426 3.3039 14.7368 2 16.5 2C17.6894 2 18.7402 2.5933 19.3726 3.5M21 8L20.5 6H20C19.7574 7.6961 18.2632 9 16.5 9C15.3106 9 14.2598 8.4067 13.6273 7.5" stroke="white" stroke-width="0.9" stroke-linecap="square"/>
</svg>
