<svg width="72" height="72" viewBox="0 0 72 72" fill="none" xmlns="http://www.w3.org/2000/svg">
<g filter="url(#filter0_i_2093_237930)">
<circle cx="36" cy="36" r="36" fill="url(#paint0_linear_2093_237930)"/>
</g>
<mask id="mask0_2093_237930" style="mask-type:alpha" maskUnits="userSpaceOnUse" x="0" y="0" width="72" height="72">
<circle cx="36" cy="36" r="36" fill="#707171"/>
</mask>
<g mask="url(#mask0_2093_237930)">
<path fill-rule="evenodd" clip-rule="evenodd" d="M23.1255 24.9163C20.3885 22.5293 20.4577 19.0952 20.5211 15.9503C20.5305 15.4847 20.5397 15.0254 20.5397 14.5768C20.5397 12.1592 21.5734 12.5119 22.9336 12.9759C23.5617 13.1902 24.2595 13.4283 24.9572 13.4283C25.2261 13.4283 25.4949 13.461 25.7598 13.5185C25.097 12.3849 24.9572 11.2195 24.9572 11.2195H38.2096C43.0688 11.2195 47.0446 15.1953 47.0446 20.0545H49.2533C49.2533 20.0545 50.1837 22.8457 49.0726 25.0122C50.4893 25.7501 51.4623 27.2337 51.4623 28.9336C51.4623 31.3632 49.4745 33.3511 47.0449 33.3511V35.5598C47.0449 38.4888 45.8813 41.2978 43.8102 43.3689C41.7392 45.44 38.9301 46.6035 36.0012 46.6035C33.0722 46.6035 30.2632 45.44 28.1921 43.3689C26.121 41.2978 24.9575 38.4888 24.9575 35.5598V33.3511C22.5279 33.3511 20.54 31.3632 20.54 28.9336C20.54 27.1565 21.6035 25.6157 23.1255 24.9163ZM60.2973 64.2734C60.2973 56.9404 54.3779 51.021 47.0449 51.021H24.9575C17.6245 51.021 11.7051 56.9404 11.7051 64.2734V73.1083H60.2973V64.2734Z" fill="#D9D9D9"/>
<path fill-rule="evenodd" clip-rule="evenodd" d="M23.1255 24.9163C20.3885 22.5293 20.4577 19.0952 20.5211 15.9503C20.5305 15.4847 20.5397 15.0254 20.5397 14.5768C20.5397 12.1592 21.5734 12.5119 22.9336 12.9759C23.5617 13.1902 24.2595 13.4283 24.9572 13.4283C25.2261 13.4283 25.4949 13.461 25.7598 13.5185C25.097 12.3849 24.9572 11.2195 24.9572 11.2195H38.2096C43.0688 11.2195 47.0446 15.1953 47.0446 20.0545H49.2533C49.2533 20.0545 50.1837 22.8457 49.0726 25.0122C50.4893 25.7501 51.4623 27.2337 51.4623 28.9336C51.4623 31.3632 49.4745 33.3511 47.0449 33.3511V35.5598C47.0449 38.4888 45.8813 41.2978 43.8102 43.3689C41.7392 45.44 38.9301 46.6035 36.0012 46.6035C33.0722 46.6035 30.2632 45.44 28.1921 43.3689C26.121 41.2978 24.9575 38.4888 24.9575 35.5598V33.3511C22.5279 33.3511 20.54 31.3632 20.54 28.9336C20.54 27.1565 21.6035 25.6157 23.1255 24.9163ZM60.2973 64.2734C60.2973 56.9404 54.3779 51.021 47.0449 51.021H24.9575C17.6245 51.021 11.7051 56.9404 11.7051 64.2734V73.1083H60.2973V64.2734Z" fill="url(#paint1_linear_2093_237930)"/>
</g>
<defs>
<filter id="filter0_i_2093_237930" x="0" y="0" width="72" height="74.5714" filterUnits="userSpaceOnUse" color-interpolation-filters="sRGB">
<feFlood flood-opacity="0" result="BackgroundImageFix"/>
<feBlend mode="normal" in="SourceGraphic" in2="BackgroundImageFix" result="shape"/>
<feColorMatrix in="SourceAlpha" type="matrix" values="0 0 0 0 0 0 0 0 0 0 0 0 0 0 0 0 0 0 127 0" result="hardAlpha"/>
<feOffset dy="2.57143"/>
<feGaussianBlur stdDeviation="17.7429"/>
<feComposite in2="hardAlpha" operator="arithmetic" k2="-1" k3="1"/>
<feColorMatrix type="matrix" values="0 0 0 0 0 0 0 0 0 0 0 0 0 0 0 0 0 0 0.03 0"/>
<feBlend mode="normal" in2="shape" result="effect1_innerShadow_2093_237930"/>
</filter>
<linearGradient id="paint0_linear_2093_237930" x1="-0.189472" y1="-6.24561e-07" x2="40.8205" y2="99.8997" gradientUnits="userSpaceOnUse">
<stop stop-color="#707171"/>
<stop offset="1" stop-color="#161A11"/>
</linearGradient>
<linearGradient id="paint1_linear_2093_237930" x1="36.0012" y1="11.2195" x2="36.0012" y2="73.1084" gradientUnits="userSpaceOnUse">
<stop stop-color="#FEFFEB"/>
<stop offset="1" stop-color="#D6FFFC"/>
</linearGradient>
</defs>
</svg>
