<svg width="56" height="56" viewBox="0 0 56 56" fill="none" xmlns="http://www.w3.org/2000/svg">
<path d="M42 18.6665H51.3333V9.33317C51.3333 6.75584 49.2441 4.6665 46.6667 4.6665C44.0893 4.6665 42 6.75584 42 9.33317V18.6665Z" stroke="#00665E" stroke-width="0.9"/>
<path d="M14 14H32.6667" stroke="#00665E" stroke-width="0.9" stroke-linejoin="round"/>
<path d="M21 23.3335H14" stroke="#00665E" stroke-width="0.9" stroke-linejoin="round"/>
<path d="M37.3327 32.7727V31.7121H33.4788L34.2216 28H32.666L31.1105 37.5455L28.7771 29.5909H27.2216L24.8882 37.5455L23.3327 28H21.7771L22.5199 31.7121H18.666V32.7727H22.7315L23.0496 34.3636H18.666V35.4242H23.2619L24.1105 39.6667H25.666L27.9993 31.7121L30.3327 39.6667H31.8882L32.7368 35.4242H37.3327V34.3636H32.9491L33.2672 32.7727H37.3327Z" fill="#00665E" stroke="#00665E" stroke-width="0.2"/>
<path d="M42.015 16.6019V49.9614C42.015 50.1383 41.8257 50.251 41.6703 50.1667L33.2281 45.5857L23.1493 51.2982C23.0765 51.3395 22.9873 51.3385 22.9153 51.2958L13.2931 45.5857L5.01263 50.1873C4.85712 50.2736 4.66602 50.1611 4.66602 49.9831V4.9C4.66602 4.77104 4.77048 4.6665 4.89935 4.6665H46.666" stroke="#00665E" stroke-width="0.9" stroke-linecap="round"/>
</svg>
