<svg width="19" height="18" viewBox="0 0 19 18" fill="none" xmlns="http://www.w3.org/2000/svg">
<path d="M14.5 6H17.5V3C17.5 2.17157 16.8284 1.5 16 1.5C15.1716 1.5 14.5 2.17157 14.5 3V6Z" stroke="#161A11" stroke-width="0.9"/>
<path d="M5.5 4.5H11.5" stroke="#161A11" stroke-width="0.9" stroke-linejoin="round"/>
<path d="M7.75 7.5H5.5" stroke="#161A11" stroke-width="0.9" stroke-linejoin="round"/>
<path d="M13 10.5341V10.1932H11.7613L12 9H11.5L11 12.0682L10.25 9.51136H9.75L9 12.0682L8.5 9H8L8.23875 10.1932H7V10.5341H8.30675L8.409 11.0455H7V11.3864H8.47725L8.75 12.75H9.25L10 10.1932L10.75 12.75H11.25L11.5227 11.3864H13V11.0455H11.591L11.6933 10.5341H13Z" fill="#161A11" stroke="#161A11" stroke-width="0.2"/>
<path d="M14.505 5.33639V16.0591C14.505 16.1159 14.4442 16.1522 14.3942 16.1251L11.6807 14.6526L8.44107 16.4888C8.41767 16.502 8.38897 16.5017 8.36584 16.488L5.273 14.6526L2.61141 16.1317C2.56143 16.1594 2.5 16.1233 2.5 16.0661V8.07055M16 1.5H5.5375" stroke="#161A11" stroke-width="0.9" stroke-linecap="round"/>
<path d="M1 3.1875L2.5 1.5L4 3.1875M2.5 2.0625L2.5 6" stroke="#161A11" stroke-width="0.9" stroke-linecap="square"/>
</svg>
