<svg width="70" height="90" viewBox="0 0 70 90" fill="none" xmlns="http://www.w3.org/2000/svg">
<path d="M67.5 30H82.5V15C82.5 10.8579 79.1422 7.5 75 7.5C70.8578 7.5 67.5 10.8579 67.5 15V30Z" stroke="#E5E5E3" stroke-width="0.9"/>
<path d="M22.5 22.5H52.5" stroke="#E5E5E3" stroke-width="0.9" stroke-linejoin="round"/>
<path d="M33.75 37.5H22.5" stroke="#E5E5E3" stroke-width="0.9" stroke-linejoin="round"/>
<path d="M60 52.6705V50.9659H53.8062L55 45H52.5L50 60.3409L46.25 47.5568H43.75L40 60.3409L37.5 45H35L36.1937 50.9659H30V52.6705H36.5338L37.045 55.2273H30V56.9318H37.3863L38.75 63.75H41.25L45 50.9659L48.75 63.75H51.25L52.6138 56.9318H60V55.2273H52.955L53.4663 52.6705H60Z" fill="#E5E5E3"/>
<path d="M67.5251 26.682V80.2954C67.5251 80.5796 67.221 80.7607 66.9712 80.6254L53.4034 73.263L37.2053 82.4437C37.0883 82.5101 36.9449 82.5086 36.8292 82.44L21.365 73.263L8.05706 80.6584C7.80713 80.7971 7.5 80.6164 7.5 80.3302V7.87526C7.5 7.668 7.66789 7.5 7.875 7.5H75" stroke="#E5E5E3" stroke-width="0.9" stroke-linecap="round"/>
</svg>
