<svg width="21" height="20" viewBox="0 0 21 20" fill="none" xmlns="http://www.w3.org/2000/svg">
<path d="M16 6.6665H19.3333V3.33317C19.3333 2.4127 18.5872 1.6665 17.6667 1.6665C16.7462 1.6665 16 2.4127 16 3.33317V6.6665Z" stroke="#00665E" stroke-width="0.9"/>
<path d="M6 5H12.6667" stroke="#00665E" stroke-width="0.9" stroke-linejoin="round"/>
<path d="M8.5 8.3335H6" stroke="#00665E" stroke-width="0.9" stroke-linejoin="round"/>
<path d="M14.3327 11.7045V11.3258H12.9563L13.2216 10H12.666L12.1105 13.4091L11.2771 10.5682H10.7216L9.88824 13.4091L9.33268 10H8.77713L9.0424 11.3258H7.66602V11.7045H9.11796L9.23157 12.2727H7.66602V12.6515H9.3074L9.61046 14.1667H10.166L10.9993 11.3258L11.8327 14.1667H12.3882L12.6913 12.6515H14.3327V12.2727H12.7671L12.8807 11.7045H14.3327Z" fill="#00665E" stroke="#00665E" stroke-width="0.2"/>
<path d="M16.0049 5.92916V17.8433C16.0049 17.9064 15.9373 17.9467 15.8818 17.9166L12.8668 16.2805L9.2672 18.3207C9.2412 18.3354 9.20932 18.3351 9.18362 18.3198L5.74712 16.2805L2.78981 17.9239C2.73427 17.9548 2.66602 17.9146 2.66602 17.851V8.96712M17.666 1.6665H6.04102" stroke="#00665E" stroke-width="0.9" stroke-linecap="round"/>
<path d="M1.00065 3.5415L2.66732 1.6665L4.33398 3.5415M2.66732 2.2915L2.66732 6.6665" stroke="#00665E" stroke-width="0.9" stroke-linecap="square"/>
</svg>
