<svg width="18" height="18" viewBox="0 0 18 18" fill="none" xmlns="http://www.w3.org/2000/svg">
<path d="M1.5 9C1.5 9.78893 1.63535 10.5463 1.88409 11.25M1.88409 11.25H8.25M1.88409 11.25C2.81072 13.8717 5.31101 15.75 8.25 15.75C7.09186 15.75 6 12.75 6 9" stroke="#FFFFFF" stroke-width="0.9"/>
<path d="M16.1159 6H11.8641M16.1159 6C15.1893 3.37832 12.689 1.5 9.75 1.5C10.664 1.5 11.5368 3.36872 11.8641 6M16.1159 6C16.3646 6.70376 16.5 7.46107 16.5 8.25M11.8641 6H9.75M11.8641 6C11.9515 6.70265 12 7.45967 12 8.25" stroke="#FFFFFF" stroke-width="0.9"/>
<path d="M16.5 10.5H10.5V16.5L12.375 15.375H16.5V10.5Z" stroke="#FFFFFF" stroke-width="0.9" stroke-linejoin="round"/>
<path d="M1.5 1.5H7.5V7.5L5.625 6.375H1.5V1.5Z" stroke="#FFFFFF" stroke-width="0.9" stroke-linejoin="round"/>
</svg>
