<svg width="16" height="16" viewBox="0 0 16 16" fill="none" xmlns="http://www.w3.org/2000/svg">
<path d="M9.66732 6.00004C9.66732 6.92051 8.92112 7.66671 8.00065 7.66671C7.08018 7.66671 6.33398 6.92051 6.33398 6.00004C6.33398 5.07957 7.08018 4.33337 8.00065 4.33337C8.92112 4.33337 9.66732 5.07957 9.66732 6.00004Z" stroke="#161A11" stroke-width="0.9"/>
<path d="M11.9993 11.3334L13.3327 14.6667H2.66602L3.99935 11.3334" stroke="#161A11" stroke-width="0.9" stroke-linejoin="round"/>
<path d="M12.6673 6.13337C12.6673 9.86671 8.00065 12 8.00065 12C8.00065 12 3.33398 9.86671 3.33398 6.13337C3.33398 3.48241 5.42332 1.33337 8.00065 1.33337C10.578 1.33337 12.6673 3.48241 12.6673 6.13337Z" stroke="#161A11" stroke-width="0.9"/>
</svg>
