<svg width="12" height="12" viewBox="0 0 12 12" fill="none" xmlns="http://www.w3.org/2000/svg">
<path d="M7.25 4.5C7.25 5.19035 6.69035 5.75 6 5.75C5.30965 5.75 4.75 5.19035 4.75 4.5C4.75 3.80964 5.30965 3.25 6 3.25C6.69035 3.25 7.25 3.80964 7.25 4.5Z" stroke="#008F84" stroke-width="0.9"/>
<path d="M9 8.5L10 11H2L3 8.5" stroke="#008F84" stroke-width="0.9" stroke-linejoin="round"/>
<path d="M9.5 4.6C9.5 7.4 6 9 6 9C6 9 2.5 7.4 2.5 4.6C2.5 2.61177 4.06701 1 6 1C7.933 1 9.5 2.61177 9.5 4.6Z" stroke="#008F84" stroke-width="0.9"/>
</svg>
