<svg width="23" height="23" viewBox="0 0 23 23" fill="none" xmlns="http://www.w3.org/2000/svg">
<path d="M22.167 9.9998V5H15.167L8.17874 2.00098L2.16699 5.08297V19L8.17874 17L12.167 18.712" stroke="#00665E" stroke-width="0.9" stroke-linejoin="round"/>
<path d="M8.16699 2V17" stroke="#00665E" stroke-width="0.9" stroke-linejoin="round"/>
<path d="M15.167 5V10" stroke="#00665E" stroke-width="0.9" stroke-linejoin="round"/>
<path d="M18.167 12C15.9579 12 14.167 13.8089 14.167 16.0404C14.167 17.3163 14.667 18.3084 15.667 19.1945C16.3719 19.8192 17.6543 21.159 18.167 22C18.7056 21.1757 19.9621 19.8192 20.667 19.1945C21.667 18.3084 22.167 17.3163 22.167 16.0404C22.167 13.8089 20.3761 12 18.167 12Z" stroke="#00665E" stroke-width="0.9" stroke-linejoin="round"/>
<path d="M18.165 16H18.174" stroke="#00665E" stroke-width="0.9" stroke-linecap="round" stroke-linejoin="round"/>
</svg>
