<svg width="20" height="20" viewBox="0 0 20 20" fill="none" xmlns="http://www.w3.org/2000/svg">
<path d="M9.99935 18.3334L8.33268 13.3334H1.66602L3.33268 18.3334H12.916" stroke="#00665E" stroke-width="0.9" stroke-linecap="round" stroke-linejoin="round"/>
<path d="M3.33398 10.8334V7.91671C3.33398 7.45647 3.70708 7.08337 4.16732 7.08337H9.16732C9.62757 7.08337 10.0007 7.45647 10.0007 7.91671V10.8334" stroke="#00665E" stroke-width="0.9" stroke-linecap="round" stroke-linejoin="round"/>
<path d="M15.416 18.3334H17.4993C17.9596 18.3334 18.3327 17.9603 18.3327 17.5V15.4167C18.3327 14.9565 17.9596 14.5834 17.4993 14.5834H11.666" stroke="#00665E" stroke-width="0.9" stroke-linecap="round" stroke-linejoin="round"/>
<path d="M15.8502 10.8333C15.8502 11.7538 15.1033 12.5 14.1819 12.5C13.2606 12.5 12.5137 11.7538 12.5137 10.8333C12.5137 9.91279 13.2606 9.16663 14.1819 9.16663C15.1033 9.16663 15.8502 9.91279 15.8502 10.8333Z" stroke="#00665E" stroke-width="0.9"/>
<path d="M8.3365 3.33329C8.3365 4.25377 7.58961 4.99996 6.66826 4.99996C5.7469 4.99996 5 4.25377 5 3.33329C5 2.41282 5.7469 1.66663 6.66826 1.66663C7.58961 1.66663 8.3365 2.41282 8.3365 3.33329Z" stroke="#00665E" stroke-width="0.9"/>
</svg>
