<svg width="20" height="20" viewBox="0 0 20 20" fill="none" xmlns="http://www.w3.org/2000/svg">
<path d="M14.9993 4.19775C17.0295 4.3486 18.3327 5.00018 18.3327 5.00018V17.5002C18.3327 17.5002 16.666 16.6668 14.166 16.6668C12.5684 16.6668 11.1098 16.9816 9.99935 17.5002C8.88893 18.0188 7.43024 18.3335 5.83268 18.3335C4.94442 18.3335 3.74935 18.3335 1.66602 17.5002V5.00018C3.16459 5.5996 4.20357 5.76785 4.99935 5.81508" stroke="#00665E" stroke-width="0.9"/>
<path d="M12.0827 11.2498C12.0827 12.4004 11.1499 13.3332 9.99935 13.3332C8.84877 13.3332 7.91602 12.4004 7.91602 11.2498C7.91602 10.0993 8.84877 9.1665 9.99935 9.1665C11.1499 9.1665 12.0827 10.0993 12.0827 11.2498Z" stroke="#00665E" stroke-width="0.9" stroke-linejoin="round"/>
<path d="M4.58398 12.0835V12.091" stroke="#00665E" stroke-width="0.9" stroke-linecap="square" stroke-linejoin="round"/>
<path d="M15.416 10.4102V10.4177" stroke="#00665E" stroke-width="0.9" stroke-linecap="square" stroke-linejoin="round"/>
<path d="M7.91602 4.58317L9.99935 6.6665L12.0827 4.58317M9.99935 1.6665V6.34777" stroke="#00665E" stroke-width="0.9"/>
</svg>
