<svg width="20" height="20" viewBox="0 0 20 20" fill="none" xmlns="http://www.w3.org/2000/svg">
<path d="M12.0827 9.99996C12.0827 11.1505 11.1499 12.0833 9.99935 12.0833C8.84877 12.0833 7.91602 11.1505 7.91602 9.99996C7.91602 8.84938 8.84877 7.91663 9.99935 7.91663C11.1499 7.91663 12.0827 8.84938 12.0827 9.99996Z" stroke="#00665E" stroke-width="0.9" stroke-linejoin="round"/>
<path d="M15.8327 9.28456C15.5618 9.24531 15.2835 9.21547 14.9993 9.19556M4.99935 10.8044C4.71516 10.7846 4.43694 10.7546 4.16602 10.7154" stroke="#00665E" stroke-width="0.9" stroke-linecap="square" stroke-linejoin="round"/>
<path d="M9.99935 3.74996C8.88893 4.26859 7.43024 4.58329 5.83268 4.58329C4.94442 4.58329 3.74935 4.58329 1.66602 3.74996V16.25C3.74935 17.0833 4.94442 17.0833 5.83268 17.0833C7.43024 17.0833 8.88893 16.7686 9.99935 16.25C11.1098 15.7313 12.5684 15.4166 14.166 15.4166C16.666 15.4166 18.3327 16.25 18.3327 16.25V3.74996C18.3327 3.74996 16.666 2.91663 14.166 2.91663C12.5684 2.91663 11.1098 3.23133 9.99935 3.74996Z" stroke="#00665E" stroke-width="0.9"/>
</svg>
