<svg width="18" height="18" viewBox="0 0 18 18" fill="none" xmlns="http://www.w3.org/2000/svg">
<path d="M13.5 3.77783C15.3271 3.91359 16.5 4.50001 16.5 4.50001V15.75C16.5 15.75 15 15 12.75 15C11.3122 15 9.99937 15.2833 9 15.75C8.00063 16.2168 6.6878 16.5 5.25 16.5C4.45056 16.5 3.375 16.5 1.5 15.75V4.50001C2.84872 5.0395 3.78379 5.19092 4.5 5.23342" stroke="#161A11" stroke-width="0.9"/>
<path d="M10.875 10.125C10.875 11.1605 10.0355 12 9 12C7.96448 12 7.125 11.1605 7.125 10.125C7.125 9.08948 7.96448 8.25 9 8.25C10.0355 8.25 10.875 9.08948 10.875 10.125Z" stroke="#161A11" stroke-width="0.9" stroke-linejoin="round"/>
<path d="M4.125 10.875V10.8818" stroke="#161A11" stroke-width="0.9" stroke-linecap="square" stroke-linejoin="round"/>
<path d="M13.875 9.36914V9.37589" stroke="#161A11" stroke-width="0.9" stroke-linecap="square" stroke-linejoin="round"/>
<path d="M7.125 4.125L9 6L10.875 4.125M9 1.5V5.71314" stroke="#161A11" stroke-width="0.9"/>
</svg>
