<svg width="17" height="16" viewBox="0 0 17 16" fill="none" xmlns="http://www.w3.org/2000/svg">
<path d="M8.49578 11.9915C7.60784 12.4061 6.44138 12.6577 5.16389 12.6577C4.45359 12.6577 3.49796 12.6577 1.83203 11.9915V1.99985C3.49796 2.66597 4.45359 2.66597 5.16389 2.66597C6.44138 2.66597 7.60784 2.41441 8.49578 1.99985C9.38371 1.58529 10.5501 1.33374 11.8276 1.33374C13.8267 1.33374 15.1595 1.99985 15.1595 1.99985V7.32875" stroke="#00665E" stroke-width="0.9"/>
<path d="M10.162 6.99558C10.162 7.91532 9.41604 8.66092 8.49604 8.66092C7.57597 8.66092 6.83008 7.91532 6.83008 6.99558C6.83008 6.0759 7.57597 5.33032 8.49604 5.33032C9.41604 5.33032 10.162 6.0759 10.162 6.99558Z" stroke="#00665E" stroke-width="0.9" stroke-linejoin="round"/>
<path d="M4.16406 7.66187V7.66787" stroke="#00665E" stroke-width="0.9" stroke-linecap="square" stroke-linejoin="round"/>
<path d="M12.8262 6.32446V6.33045" stroke="#00665E" stroke-width="0.9" stroke-linecap="square" stroke-linejoin="round"/>
<path d="M14.1657 8.66089L15.1634 9.99016V10.3251H10.493C10.4893 10.3251 10.4863 10.3281 10.4863 10.3318V11.6632M11.5039 14.6663L10.4863 13.3211V12.9874L15.1619 12.9987C15.1655 12.9988 15.1685 12.9958 15.1685 12.992V11.6632" stroke="#00665E" stroke-width="0.9"/>
</svg>
