<svg width="18" height="18" viewBox="0 0 18 18" fill="none" xmlns="http://www.w3.org/2000/svg">
<path d="M10.875 9C10.875 10.0355 10.0355 10.875 9 10.875C7.96448 10.875 7.125 10.0355 7.125 9C7.125 7.96448 7.96448 7.125 9 7.125C10.0355 7.125 10.875 7.96448 10.875 9Z" stroke="#161A11" stroke-width="0.9" stroke-linejoin="round"/>
<path d="M14.25 8.3561C14.0062 8.32078 13.7557 8.29393 13.5 8.276M4.5 9.72395C4.24423 9.7061 3.99383 9.67917 3.75 9.64385" stroke="#161A11" stroke-width="0.9" stroke-linecap="square" stroke-linejoin="round"/>
<path d="M9 3.375C8.00063 3.84177 6.6878 4.125 5.25 4.125C4.45056 4.125 3.375 4.125 1.5 3.375V14.625C3.375 15.375 4.45056 15.375 5.25 15.375C6.6878 15.375 8.00063 15.0918 9 14.625C9.99937 14.1582 11.3122 13.875 12.75 13.875C15 13.875 16.5 14.625 16.5 14.625V3.375C16.5 3.375 15 2.625 12.75 2.625C11.3122 2.625 9.99937 2.90823 9 3.375Z" stroke="#161A11" stroke-width="0.9"/>
</svg>
