<svg width="24" height="25" viewBox="0 0 24 25" fill="none" xmlns="http://www.w3.org/2000/svg">
<path d="M18 5.53711C20.4362 5.71812 22 6.50002 22 6.50002V21.5C22 21.5 20 20.5 17 20.5C15.0829 20.5 13.3325 20.8777 12 21.5C10.6675 22.1224 8.91707 22.5 7 22.5C5.93408 22.5 4.5 22.5 2 21.5V6.50002C3.79829 7.21933 5.04506 7.42123 6 7.4779" stroke="white" stroke-width="0.9"/>
<path d="M14.5 14C14.5 15.3807 13.3807 16.5 12 16.5C10.6193 16.5 9.5 15.3807 9.5 14C9.5 12.6193 10.6193 11.5 12 11.5C13.3807 11.5 14.5 12.6193 14.5 14Z" stroke="white" stroke-width="0.9" stroke-linejoin="round"/>
<path d="M5.5 15V15.009" stroke="white" stroke-width="0.9" stroke-linecap="square" stroke-linejoin="round"/>
<path d="M18.5 12.9922V13.0012" stroke="white" stroke-width="0.9" stroke-linecap="square" stroke-linejoin="round"/>
<path d="M9.5 6L12 8.5L14.5 6M12 2.5V8.11752" stroke="white" stroke-width="0.9"/>
</svg>
