<svg width="18" height="18" viewBox="0 0 18 18" fill="none" xmlns="http://www.w3.org/2000/svg">
<path d="M9 14.25C8.00063 14.7168 6.6878 15 5.25 15C4.45056 15 3.375 15 1.5 14.25V3C3.375 3.75 4.45056 3.75 5.25 3.75C6.6878 3.75 8.00063 3.46677 9 3C9.99937 2.53323 11.3122 2.25 12.75 2.25C15 2.25 16.5 3 16.5 3V8.625" stroke="#161A11" stroke-width="0.9"/>
<path d="M13.875 15.75V10.5M11.25 13.125H16.5" stroke="#161A11" stroke-width="0.9" stroke-linejoin="round"/>
<path d="M10.875 8.625C10.875 9.66052 10.0355 10.5 9 10.5C7.96448 10.5 7.125 9.66052 7.125 8.625C7.125 7.58948 7.96448 6.75 9 6.75C10.0355 6.75 10.875 7.58948 10.875 8.625Z" stroke="#161A11" stroke-width="0.9" stroke-linejoin="round"/>
<path d="M4.125 9.375V9.38175" stroke="#161A11" stroke-width="0.9" stroke-linecap="square" stroke-linejoin="round"/>
</svg>
