<svg width="56" height="56" viewBox="0 0 56 56" fill="none" xmlns="http://www.w3.org/2000/svg">
<path d="M28.0013 44.3333C24.8921 45.7856 20.8078 46.6667 16.3346 46.6667C13.8475 46.6667 10.5013 46.6667 4.66797 44.3333V9.33333C10.5013 11.6667 13.8475 11.6667 16.3346 11.6667C20.8078 11.6667 24.8921 10.7855 28.0013 9.33333C31.1105 7.88116 35.1947 7 39.668 7C46.668 7 51.3346 9.33333 51.3346 9.33333V26.8333" stroke="#00665E" stroke-width="0.9"/>
<path d="M43.1667 49.0001V32.6667M35 40.8334H51.3333" stroke="#00665E" stroke-width="0.9" stroke-linejoin="round"/>
<path d="M33.8346 26.8333C33.8346 30.055 31.2229 32.6667 28.0013 32.6667C24.7797 32.6667 22.168 30.055 22.168 26.8333C22.168 23.6117 24.7797 21 28.0013 21C31.2229 21 33.8346 23.6117 33.8346 26.8333Z" stroke="#00665E" stroke-width="0.9" stroke-linejoin="round"/>
<path d="M12.832 29.1667V29.1877" stroke="#00665E" stroke-width="0.9" stroke-linecap="square" stroke-linejoin="round"/>
</svg>
