<svg width="20" height="20" viewBox="0 0 20 20" fill="none" xmlns="http://www.w3.org/2000/svg">
<path d="M9.99935 15.8333C8.88893 16.352 7.43024 16.6667 5.83268 16.6667C4.94442 16.6667 3.74935 16.6667 1.66602 15.8333V3.33333C3.74935 4.16667 4.94442 4.16667 5.83268 4.16667C7.43024 4.16667 8.88893 3.85197 9.99935 3.33333C11.1098 2.8147 12.5684 2.5 14.166 2.5C16.666 2.5 18.3327 3.33333 18.3327 3.33333V9.58333" stroke="#00665E" stroke-width="0.9"/>
<path d="M15.4167 17.4998V11.6665M12.5 14.5832H18.3333" stroke="#00665E" stroke-width="0.9" stroke-linejoin="round"/>
<path d="M12.0827 9.58333C12.0827 10.7339 11.1499 11.6667 9.99935 11.6667C8.84877 11.6667 7.91602 10.7339 7.91602 9.58333C7.91602 8.43275 8.84877 7.5 9.99935 7.5C11.1499 7.5 12.0827 8.43275 12.0827 9.58333Z" stroke="#00665E" stroke-width="0.9" stroke-linejoin="round"/>
<path d="M4.58398 10.4165V10.424" stroke="#00665E" stroke-width="0.9" stroke-linecap="square" stroke-linejoin="round"/>
</svg>
