<svg width="18" height="18" viewBox="0 0 18 18" fill="none" xmlns="http://www.w3.org/2000/svg">
<path d="M13.5 6H16.5V3C16.5 2.17157 15.8284 1.5 15 1.5C14.1716 1.5 13.5 2.17157 13.5 3V6Z" stroke="#FFFFFF" stroke-width="0.9"/>
<path d="M4.5 4.5H10.5" stroke="#FFFFFF" stroke-width="0.9" stroke-linejoin="round"/>
<path d="M6.75 7.5H4.5" stroke="#FFFFFF" stroke-width="0.9" stroke-linejoin="round"/>
<path d="M12 10.5341V10.1932H10.7613L11 9H10.5L10 12.0682L9.25 9.51136H8.75L8 12.0682L7.5 9H7L7.23875 10.1932H6V10.5341H7.30675L7.409 11.0455H6V11.3864H7.47725L7.75 12.75H8.25L9 10.1932L9.75 12.75H10.25L10.5227 11.3864H12V11.0455H10.591L10.6933 10.5341H12Z" fill="#FFFFFF" stroke="#FFFFFF" stroke-width="0.2"/>
<path d="M13.505 5.33639V16.0591C13.505 16.1159 13.4442 16.1522 13.3942 16.1251L10.6807 14.6526L7.44107 16.4888C7.41767 16.502 7.38897 16.5017 7.36584 16.488L4.273 14.6526L1.61141 16.1317C1.56143 16.1594 1.5 16.1233 1.5 16.0661V1.57505C1.5 1.5336 1.53358 1.5 1.575 1.5H15" stroke="#FFFFFF" stroke-width="0.9" stroke-linecap="round"/>
</svg>
