<svg width="24" height="24" viewBox="0 0 24 24" fill="none" xmlns="http://www.w3.org/2000/svg">
<mask id="mask0_5321_198574" style="mask-type:alpha" maskUnits="userSpaceOnUse" x="0" y="0" width="24" height="24">
<rect width="24" height="24" fill="#D9D9D9"/>
</mask>
<g mask="url(#mask0_5321_198574)">
<path d="M10.9347 13.6934H8.39453" stroke="#00665E" stroke-width="0.9" stroke-linejoin="round"/>
<path d="M-0.0722656 13.6934H5.00811" stroke="#00665E" stroke-width="0.9" stroke-linejoin="round"/>
<path d="M7.125 16.2334V18.7736H10.9353V16.2334" stroke="#00665E" stroke-width="0.9" stroke-linecap="round" stroke-linejoin="round"/>
<path d="M8.81836 10.3067L10.9352 8.61328" stroke="#00665E" stroke-width="0.9" stroke-linejoin="round"/>
<path d="M-4.30664 10.3069L-2.61318 5.22656H7.54756L9.24102 10.3069" stroke="#00665E" stroke-width="0.9" stroke-linejoin="round"/>
<path d="M-6 16.2337V13.6932L-4.30654 10.3066H9.24111L10.9346 13.6932V16.2337H-6Z" stroke="#00665E" stroke-width="0.9" stroke-linejoin="round"/>
<path d="M17 13.8252C19.7614 13.8252 22 11.5866 22 8.8252C22 6.06377 19.7614 3.8252 17 3.8252C14.2386 3.8252 12 6.06377 12 8.8252C12 11.5866 14.2386 13.8252 17 13.8252Z" stroke="#00665E" stroke-width="0.9"/>
<path d="M14.8379 11.5034V5.69141H16.6531C17.3315 5.69141 17.8714 5.83793 18.273 6.13097C18.68 6.42401 18.8835 6.85272 18.8835 7.4171C18.8835 7.84039 18.7695 8.19312 18.5416 8.47531C18.3191 8.7575 18.0179 8.94201 17.6381 9.02884L19.6243 11.5034H18.2486L16.4578 9.20792H15.9612V11.5034H14.8379ZM15.9612 8.30437H16.6613C17.3776 8.30437 17.7358 8.02761 17.7358 7.47408C17.7358 6.90428 17.3803 6.61937 16.6694 6.61937H15.9612V8.30437Z" fill="#00665E"/>
</g>
</svg>
