<svg width="24" height="25" viewBox="0 0 24 25" fill="none" xmlns="http://www.w3.org/2000/svg">
<path d="M12 20H2C2 16.134 5.58172 13 10 13C11.4571 13 12.8233 13.3409 14 13.9365M14 6C14 8.20914 12.2091 10 10 10C7.79086 10 6 8.20914 6 6C6 3.79086 7.79086 2 10 2C12.2091 2 14 3.79086 14 6Z" stroke="#00665E" stroke-width="0.9"/>
<path d="M18.1855 24C20.947 24 23.1855 21.7614 23.1855 19C23.1855 16.2386 20.947 14 18.1855 14C15.4241 14 13.1855 16.2386 13.1855 19C13.1855 21.7614 15.4241 24 18.1855 24Z" stroke="#00665E" stroke-width="0.9"/>
<path d="M22.1855 18.6364V18.2727H20.5339L20.8522 17H20.1855L19.5189 20.2727L18.5189 17.5455H17.8522L16.8522 20.2727L16.1855 17H15.5189L15.8372 18.2727H14.1855V18.6364H15.9279L16.0642 19.1818H14.1855V19.5455H16.1552L16.5189 21H17.1855L18.1855 18.2727L19.1855 21H19.8522L20.2159 19.5455H22.1855V19.1818H20.3069L20.4432 18.6364H22.1855Z" fill="#00665E" stroke="#00665E" stroke-width="0.2"/>
</svg>
