<svg width="24" height="24" viewBox="0 0 24 24" fill="none" xmlns="http://www.w3.org/2000/svg">
<path d="M3 21V4H21V21" stroke="#00665E" stroke-width="0.9"/>
<path d="M3 17H21" stroke="#00665E" stroke-width="0.9"/>
<path d="M11.1437 14.7144C11.1437 15.4245 10.5681 16.0001 9.85798 16.0001C9.1479 16.0001 8.57227 15.4245 8.57227 14.7144C8.57227 14.0043 9.1479 13.4287 9.85798 13.4287C10.5681 13.4287 11.1437 14.0043 11.1437 14.7144Z" stroke="#00665E" stroke-width="0.9" stroke-linejoin="round"/>
<path d="M17.5714 14.7144C17.5714 15.4245 16.9958 16.0001 16.2857 16.0001C15.5756 16.0001 15 15.4245 15 14.7144C15 14.0043 15.5756 13.4287 16.2857 13.4287C16.9958 13.4287 17.5714 14.0043 17.5714 14.7144Z" stroke="#00665E" stroke-width="0.9" stroke-linejoin="round"/>
<path d="M6 10.8574H16.2857" stroke="#00665E" stroke-width="0.9" stroke-linejoin="round"/>
<path d="M11.1426 10.8571V7" stroke="#00665E" stroke-width="0.9" stroke-linejoin="round"/>
<path d="M16.9285 14.7143H18.8507C18.8542 14.7143 18.8571 14.7114 18.8571 14.7078V11.504C18.8571 11.5015 18.8558 11.4993 18.8536 11.4982L16.2857 10.2143L13.7162 7.00241C13.715 7.00089 13.7131 7 13.7112 7H7.28571M7.28571 7L6 10.2143V14.7078C6 14.7114 6.00288 14.7143 6.00643 14.7143H7.92857M7.28571 7H6M14.3571 14.7143H10.5" stroke="#00665E" stroke-width="0.9"/>
</svg>
