<svg width="24" height="24" viewBox="0 0 24 24" fill="none" xmlns="http://www.w3.org/2000/svg">
<path d="M4.32617 11.7842H6.62842" stroke="#00665E" stroke-width="0.9" stroke-linejoin="round"/>
<path d="M19.6733 11.7842H17.3711" stroke="#00665E" stroke-width="0.9" stroke-linejoin="round"/>
<path d="M9.69727 11.7842H14.3018" stroke="#00665E" stroke-width="0.9" stroke-linejoin="round"/>
<path d="M4.32617 14.0859V16.3882H7.77955V14.0859" stroke="#00665E" stroke-width="0.9" stroke-linecap="round" stroke-linejoin="round"/>
<path d="M16.2207 14.0859V16.3882H19.6741V14.0859" stroke="#00665E" stroke-width="0.9" stroke-linecap="round" stroke-linejoin="round"/>
<path d="M17.7559 8.71452L19.6744 7.17969" stroke="#00665E" stroke-width="0.9" stroke-linejoin="round"/>
<path d="M6.24472 8.71452L4.32617 7.17969" stroke="#00665E" stroke-width="0.9" stroke-linejoin="round"/>
<path d="M5.86133 8.71486L7.39616 4.11035H16.6052L18.14 8.71486" stroke="#00665E" stroke-width="0.9" stroke-linejoin="round"/>
<path d="M4.32617 14.0868V11.7842L5.86101 8.71484H18.1397L19.6745 11.7842V14.0868H4.32617Z" stroke="#00665E" stroke-width="0.9" stroke-linejoin="round"/>
<path d="M2.45361 15.5C1.58467 16.0636 1.08984 16.7451 1.08984 17.4354C1.08984 19.6041 5.97448 21.3622 12 21.3622C18.0255 21.3622 22.9102 19.6041 22.9102 17.4354C22.9102 16.7451 22.4154 16.0636 21.5464 15.5" stroke="#00665E" stroke-width="0.9" stroke-linecap="square" stroke-linejoin="round"/>
</svg>
