<svg width="18" height="18" viewBox="0 0 18 18" fill="none" xmlns="http://www.w3.org/2000/svg">
<path d="M16.5 9C16.5 13.1421 13.1421 16.5 9 16.5C4.85786 16.5 1.5 13.1421 1.5 9C1.5 4.85786 4.85786 1.5 9 1.5C13.1421 1.5 16.5 4.85786 16.5 9Z" stroke="#161A11" stroke-width="0.9" stroke-linecap="round" stroke-linejoin="round"/>
<path d="M14.25 7.875C13.5232 8.19315 12.3638 8.4135 11.3696 8.0376C9.94785 7.5 9.21697 7.5 9 7.5C8.78303 7.5 8.05215 7.5 6.63037 8.0376C5.63619 8.4135 4.4768 8.19315 3.75 7.875M14.25 10.125C12.75 10.125 10.125 11.25 10.125 14.25M7.875 14.25C7.875 11.25 5.25 10.125 3.75 10.125" stroke="#161A11" stroke-width="0.9" stroke-linecap="round" stroke-linejoin="round"/>
</svg>
