<svg width="15" height="15" viewBox="0 0 15 15" fill="none" xmlns="http://www.w3.org/2000/svg">
<g filter="url(#filter0_d_4311_7118)">
<path d="M2.5 2.5H6.5" stroke="url(#paint0_linear_4311_7118)" stroke-width="0.9" stroke-linejoin="round"/>
<path d="M2.5 5.5H6.5" stroke="url(#paint1_linear_4311_7118)" stroke-width="0.9" stroke-linejoin="round"/>
<path d="M2.5 8.5H11.5" stroke="url(#paint2_linear_4311_7118)" stroke-width="0.9" stroke-linejoin="round"/>
<path d="M2.5 11.5H11.5" stroke="url(#paint3_linear_4311_7118)" stroke-width="0.9" stroke-linejoin="round"/>
<path d="M10 2L10.1924 2.85415C10.3556 3.5786 10.9214 4.1444 11.6459 4.3076L12.5 4.5L11.6459 4.6924C10.9214 4.8556 10.3556 5.42135 10.1924 6.14585L10 7L9.8076 6.14585C9.6444 5.42135 9.07863 4.8556 8.35414 4.6924L7.5 4.5L8.35414 4.3076C9.07863 4.1444 9.6444 3.57865 9.8076 2.85415L10 2Z" stroke="url(#paint4_linear_4311_7118)" stroke-width="0.9" stroke-linejoin="round"/>
</g>
<defs>
<filter id="filter0_d_4311_7118" x="-1" y="0" width="16" height="16" filterUnits="userSpaceOnUse" color-interpolation-filters="sRGB">
<feFlood flood-opacity="0" result="BackgroundImageFix"/>
<feColorMatrix in="SourceAlpha" type="matrix" values="0 0 0 0 0 0 0 0 0 0 0 0 0 0 0 0 0 0 127 0" result="hardAlpha"/>
<feOffset dy="1"/>
<feGaussianBlur stdDeviation="1"/>
<feComposite in2="hardAlpha" operator="out"/>
<feColorMatrix type="matrix" values="0 0 0 0 0 0 0 0 0 0 0 0 0 0 0 0 0 0 0.1 0"/>
<feBlend mode="normal" in2="BackgroundImageFix" result="effect1_dropShadow_4311_7118"/>
<feBlend mode="normal" in="SourceGraphic" in2="effect1_dropShadow_4311_7118" result="shape"/>
</filter>
<linearGradient id="paint0_linear_4311_7118" x1="4.5" y1="2.5" x2="4.59274" y2="3.6985" gradientUnits="userSpaceOnUse">
<stop stop-color="#008F84"/>
<stop offset="1" stop-color="#00665E"/>
</linearGradient>
<linearGradient id="paint1_linear_4311_7118" x1="4.5" y1="5.5" x2="4.59274" y2="6.6985" gradientUnits="userSpaceOnUse">
<stop stop-color="#008F84"/>
<stop offset="1" stop-color="#00665E"/>
</linearGradient>
<linearGradient id="paint2_linear_4311_7118" x1="7" y1="8.5" x2="7.04141" y2="9.70425" gradientUnits="userSpaceOnUse">
<stop stop-color="#008F84"/>
<stop offset="1" stop-color="#00665E"/>
</linearGradient>
<linearGradient id="paint3_linear_4311_7118" x1="7" y1="11.5" x2="7.04141" y2="12.7043" gradientUnits="userSpaceOnUse">
<stop stop-color="#008F84"/>
<stop offset="1" stop-color="#00665E"/>
</linearGradient>
<linearGradient id="paint4_linear_4311_7118" x1="10" y1="2" x2="11.7027" y2="7.50139" gradientUnits="userSpaceOnUse">
<stop stop-color="#008F84"/>
<stop offset="1" stop-color="#00665E"/>
</linearGradient>
</defs>
</svg>
