<svg width="16" height="16" viewBox="0 0 16 16" fill="none" xmlns="http://www.w3.org/2000/svg">
<path d="M8.66699 7.33333L12.0003 4" stroke="#CEDC00" stroke-width="0.9"/>
<path d="M12.6663 4.66665L11.333 3.33331L12.9997 2.33331L13.6663 2.99998L12.6663 4.66665Z" stroke="#CEDC00" stroke-width="0.9"/>
<path d="M2.68342 5.98325C2.00944 5.30927 1.83397 4.32557 2.15699 3.49032L3.10499 4.43832H4.43832V3.10499L3.49032 2.15699C4.32557 1.83397 5.30927 2.00944 5.98325 2.68342C6.65747 3.35765 6.83287 4.34183 6.50932 5.17729L10.8227 9.49067C11.6582 9.16713 12.6423 9.34253 13.3166 10.0167C13.9905 10.6907 14.1661 11.6744 13.843 12.5097L12.895 11.5617H11.5617V12.895L12.5097 13.843C11.6744 14.1661 10.6907 13.9905 10.0167 13.3166C9.343 12.6429 9.1674 11.6597 9.48993 10.8246L5.17541 6.51005C4.34035 6.8326 3.35714 6.65697 2.68342 5.98325Z" stroke="#CEDC00" stroke-width="0.9"/>
<path d="M8.13587 9.66669L3.80249 14L2 12.1988L6.33377 7.86462" stroke="#CEDC00" stroke-width="0.9"/>
</svg>
