<svg width="32" height="32" viewBox="0 0 32 32" fill="none" xmlns="http://www.w3.org/2000/svg">
<path d="M22.6667 26.6667C24.1394 26.6667 25.3333 25.4728 25.3333 24C25.3333 22.5273 24.1394 21.3334 22.6667 21.3334C21.1939 21.3334 20 22.5273 20 24C20 25.4728 21.1939 26.6667 22.6667 26.6667Z" stroke="#00665E" stroke-linejoin="round"/>
<path d="M12.0001 24C12.0001 25.4728 10.8062 26.6667 9.33341 26.6667C7.86065 26.6667 6.66675 25.4728 6.66675 24C6.66675 22.5272 7.86065 21.3334 9.33341 21.3334C10.8062 21.3334 12.0001 22.5272 12.0001 24Z" stroke="#00665E" stroke-linejoin="round"/>
<path d="M17.3333 24H19.9999M17.3333 9.33337H23.9999L29.3333 16V24H25.3333" stroke="#00665E" stroke-linejoin="round"/>
<path d="M21.3333 9.33337V16H29.3333" stroke="#00665E" stroke-linejoin="round"/>
<path d="M11.5943 24H17.3334V5.33337H2.66675V24H6.66675" stroke="#00665E" stroke-linejoin="round"/>
</svg>
