<svg width="32" height="32" viewBox="0 0 32 32" fill="none" xmlns="http://www.w3.org/2000/svg">
<path d="M22.6665 14C24.5074 14 25.9998 12.5077 25.9998 10.6667C25.9998 8.82576 24.5074 7.33337 22.6665 7.33337M29.3332 24C29.3332 20.3182 26.3484 17.3334 22.6665 17.3334" stroke="#707171"/>
<path d="M9.33314 14C7.4922 14 5.99981 12.5077 5.99981 10.6667C5.99981 8.82576 7.4922 7.33337 9.33314 7.33337M2.6665 24C2.6665 20.3182 5.65128 17.3334 9.33317 17.3334" stroke="#707171"/>
<path d="M20.6668 10C20.6668 12.5774 18.5775 14.6667 16.0002 14.6667C13.4228 14.6667 11.3335 12.5774 11.3335 10C11.3335 7.42271 13.4228 5.33337 16.0002 5.33337C18.5775 5.33337 20.6668 7.42271 20.6668 10Z" stroke="#707171"/>
<path d="M6.6665 26.6666H25.3332C25.3332 22.2484 21.1545 18.6666 15.9998 18.6666C10.8452 18.6666 6.6665 22.2484 6.6665 26.6666Z" stroke="#707171"/>
</svg>
