<svg width="18" height="18" viewBox="0 0 18 18" fill="none" xmlns="http://www.w3.org/2000/svg">
<path d="M12.75 15C13.5784 15 14.25 14.3284 14.25 13.5C14.25 12.6716 13.5784 12 12.75 12C11.9216 12 11.25 12.6716 11.25 13.5C11.25 14.3284 11.9216 15 12.75 15Z" stroke="#161A11" stroke-width="0.9" stroke-linejoin="round"/>
<path d="M6.75 13.5C6.75 14.3284 6.07843 15 5.25 15C4.42157 15 3.75 14.3284 3.75 13.5C3.75 12.6716 4.42157 12 5.25 12C6.07843 12 6.75 12.6716 6.75 13.5Z" stroke="#161A11" stroke-width="0.9" stroke-linejoin="round"/>
<path d="M9.75 13.5H11.25M9.75 5.25H13.5L16.5 9V13.5H14.25" stroke="#161A11" stroke-width="0.9" stroke-linejoin="round"/>
<path d="M12 5.25V9H16.5" stroke="#161A11" stroke-width="0.9" stroke-linejoin="round"/>
<path d="M6.52174 13.5H9.75V3H1.5V13.5H3.75" stroke="#161A11" stroke-width="0.9" stroke-linejoin="round"/>
</svg>
